<svg width="285" height="307" viewBox="0 0 285 307" fill="none" xmlns="http://www.w3.org/2000/svg">
<ellipse opacity="0.5" cx="139.348" cy="167.283" rx="139.348" ry="139.717" fill="url(#paint0_linear_535_1710)"/>
<path d="M140.828 263.794C218.605 263.794 281.656 260.103 281.656 255.55C281.656 250.997 218.605 247.306 140.828 247.306C63.0508 247.306 0 250.997 0 255.55C0 260.103 63.0508 263.794 140.828 263.794Z" fill="#F5F5F5"/>
<path d="M154.979 130.449C154.979 130.449 117.455 130.948 116.285 133.628C115.116 136.308 109.779 168.769 109.446 179.959C109.113 191.149 108.949 198.532 110.112 199.869C111.276 201.206 129.462 211.751 129.462 211.751C129.462 211.751 120.956 241.702 123.616 242.711C126.276 243.719 142.633 247.895 153.138 248.065C163.643 248.235 173.99 248.229 174.826 248.229C175.662 248.229 202.512 249.232 211.854 247.056C221.196 244.881 224.025 244.71 224.025 241.033C224.025 237.356 221.687 232.823 221.523 232.002C221.36 231.181 227.866 167.743 224.195 152.184C220.524 136.625 215.689 130.596 212.018 129.593C208.347 128.59 182.163 129.259 182.163 129.259L154.979 130.449Z" fill="#FF5050"/>
<path d="M189.225 248.786C185.133 248.786 180.567 248.722 175.645 248.581H174.832C172.962 248.581 163.141 248.581 153.144 248.417C142.464 248.247 126.118 244.018 123.523 243.039C122.938 242.828 121.611 242.323 125.277 226.847C126.878 220.032 128.784 213.246 129.135 211.95C127.06 210.748 111.042 201.423 109.914 200.121C108.68 198.708 108.82 191.911 109.171 180.011C109.51 168.675 114.935 136.079 116.034 133.552C117.203 130.836 148.684 130.279 154.991 130.197L182.175 129.024C183.25 128.995 208.481 128.367 212.117 129.37C214.374 129.957 220.085 133.44 224.505 152.172C227.527 164.992 223.727 209.493 222.295 226.243C222.02 229.462 221.822 231.79 221.839 232.019C221.971 232.427 222.123 232.829 222.295 233.221C223.008 234.981 224.341 238.288 224.341 241.092C224.341 244.611 221.962 245.127 214.888 246.728L211.965 247.402C207.932 248.329 200.046 248.786 189.225 248.786ZM198.783 129.37C190.838 129.37 182.327 129.581 182.175 129.587L154.991 130.76C140.552 130.954 117.355 131.933 116.56 133.763C115.467 136.267 110.083 168.71 109.744 180.006C109.452 189.876 109.195 198.403 110.329 199.717C111.258 200.784 124.558 208.607 129.62 211.534C129.676 211.567 129.72 211.617 129.745 211.678C129.769 211.738 129.773 211.805 129.755 211.868C125.598 226.465 122.213 241.878 123.727 242.464C126.306 243.432 142.54 247.631 153.15 247.801C163.152 247.959 172.962 247.965 174.832 247.965H175.662C193.498 248.47 206.33 248.053 211.79 246.792C212.86 246.54 213.842 246.323 214.742 246.118C221.652 244.552 223.739 244.077 223.739 241.051C223.739 238.365 222.435 235.133 221.734 233.397C221.543 232.966 221.379 232.524 221.243 232.072C221.214 231.902 221.295 230.87 221.699 226.149C223.125 209.423 226.919 164.998 223.914 152.254C219.571 133.827 214.099 130.473 211.948 129.88C210.41 129.493 204.757 129.37 198.783 129.37Z" fill="#263238"/>
<path d="M171.069 146.191C171.012 146.192 170.956 146.175 170.908 146.144C170.86 146.113 170.822 146.068 170.8 146.015C170.785 145.979 170.776 145.941 170.775 145.902C170.775 145.864 170.782 145.825 170.796 145.789C170.81 145.753 170.831 145.721 170.858 145.693C170.885 145.665 170.917 145.643 170.952 145.628C172.281 145.058 173.574 144.406 174.822 143.675C174.855 143.655 174.892 143.643 174.93 143.638C174.969 143.633 175.007 143.636 175.045 143.646C175.082 143.656 175.117 143.673 175.147 143.697C175.178 143.72 175.203 143.75 175.222 143.783C175.242 143.817 175.254 143.854 175.259 143.892C175.264 143.93 175.261 143.969 175.251 144.006C175.241 144.044 175.224 144.079 175.2 144.109C175.177 144.14 175.148 144.166 175.114 144.185C173.845 144.927 172.531 145.589 171.18 146.167C171.145 146.183 171.107 146.191 171.069 146.191Z" fill="#263238"/>
<path d="M176.735 143.129C176.687 143.128 176.64 143.117 176.597 143.094C176.554 143.072 176.517 143.039 176.49 143C176.448 142.935 176.434 142.855 176.45 142.779C176.466 142.704 176.512 142.637 176.577 142.595C181.224 139.49 185.304 135.606 188.637 131.112C188.659 131.081 188.688 131.054 188.72 131.033C188.753 131.012 188.789 130.998 188.827 130.992C188.865 130.985 188.904 130.986 188.942 130.995C188.98 131.003 189.015 131.019 189.047 131.042C189.078 131.064 189.105 131.091 189.125 131.124C189.146 131.156 189.16 131.192 189.166 131.229C189.173 131.267 189.172 131.306 189.163 131.343C189.155 131.38 189.139 131.415 189.117 131.447C185.738 135.998 181.606 139.934 176.899 143.082C176.85 143.114 176.793 143.131 176.735 143.129Z" fill="#263238"/>
<path d="M180.172 144.771C180.12 144.771 180.068 144.756 180.023 144.73C179.978 144.703 179.941 144.665 179.915 144.619C179.896 144.585 179.885 144.548 179.881 144.509C179.876 144.471 179.88 144.432 179.891 144.395C179.902 144.358 179.92 144.323 179.944 144.293C179.968 144.263 179.998 144.238 180.032 144.22C182.955 142.648 186.375 137.857 186.41 137.81C186.43 137.775 186.458 137.745 186.491 137.721C186.524 137.697 186.561 137.681 186.601 137.672C186.641 137.664 186.682 137.664 186.721 137.672C186.761 137.681 186.798 137.697 186.831 137.721C186.864 137.744 186.892 137.775 186.913 137.81C186.933 137.845 186.947 137.884 186.951 137.924C186.956 137.964 186.953 138.005 186.941 138.044C186.929 138.083 186.91 138.119 186.883 138.15C186.743 138.349 183.376 143.1 180.307 144.736C180.266 144.759 180.219 144.771 180.172 144.771Z" fill="#263238"/>
<path d="M162.806 191.887C162.745 191.886 162.685 191.866 162.636 191.829C162.586 191.792 162.55 191.741 162.531 191.682L161.549 188.62C161.536 188.584 161.531 188.545 161.534 188.507C161.536 188.468 161.547 188.43 161.564 188.396C161.582 188.361 161.606 188.331 161.636 188.306C161.665 188.281 161.699 188.262 161.736 188.251C161.81 188.227 161.89 188.233 161.959 188.268C162.028 188.304 162.08 188.365 162.105 188.439L163.087 191.5C163.111 191.574 163.104 191.654 163.069 191.724C163.034 191.793 162.973 191.845 162.9 191.869C162.87 191.881 162.838 191.887 162.806 191.887Z" fill="#263238"/>
<path d="M168.159 208.566C168.098 208.566 168.037 208.546 167.988 208.509C167.938 208.472 167.902 208.42 167.885 208.361L163.535 194.82C163.511 194.742 163.519 194.658 163.557 194.586C163.595 194.514 163.659 194.46 163.737 194.435C163.814 194.411 163.898 194.419 163.97 194.457C164.042 194.495 164.096 194.56 164.12 194.638L168.469 208.185C168.492 208.259 168.485 208.339 168.45 208.408C168.415 208.476 168.355 208.529 168.282 208.555L168.159 208.566Z" fill="#263238"/>
<path d="M169.497 208.901C169.441 208.904 169.385 208.887 169.339 208.854C169.307 208.834 169.278 208.807 169.256 208.776C169.233 208.744 169.217 208.709 169.209 208.671C169.2 208.634 169.199 208.595 169.205 208.557C169.212 208.519 169.225 208.482 169.246 208.449L173.583 201.594C173.603 201.56 173.629 201.531 173.661 201.508C173.692 201.485 173.727 201.469 173.765 201.46C173.803 201.452 173.842 201.451 173.88 201.457C173.918 201.464 173.954 201.479 173.987 201.5C174.052 201.542 174.097 201.608 174.115 201.683C174.132 201.759 174.12 201.838 174.08 201.905L169.743 208.766C169.716 208.807 169.679 208.841 169.637 208.864C169.594 208.888 169.546 208.9 169.497 208.901Z" fill="#263238"/>
<path d="M179.336 204.883C179.279 204.885 179.222 204.87 179.174 204.84C179.125 204.81 179.087 204.765 179.064 204.713C179.041 204.661 179.034 204.603 179.043 204.546C179.053 204.49 179.08 204.438 179.119 204.396L189.642 192.515C189.694 192.456 189.767 192.421 189.845 192.417C189.923 192.412 189.999 192.439 190.057 192.491C190.115 192.543 190.15 192.616 190.155 192.695C190.159 192.773 190.132 192.849 190.08 192.908L179.558 204.789C179.53 204.82 179.495 204.845 179.457 204.861C179.419 204.877 179.377 204.885 179.336 204.883Z" fill="#263238"/>
<path d="M174.834 248.558H174.752L152.111 241.937C152.074 241.926 152.04 241.908 152.01 241.884C151.98 241.86 151.955 241.83 151.936 241.796C151.918 241.763 151.906 241.725 151.902 241.687C151.898 241.649 151.901 241.61 151.912 241.573C151.922 241.536 151.94 241.501 151.963 241.47C151.987 241.44 152.017 241.415 152.051 241.396C152.085 241.377 152.122 241.366 152.16 241.362C152.199 241.358 152.238 241.362 152.275 241.374L174.91 247.983C174.987 247.994 175.057 248.036 175.105 248.098C175.152 248.161 175.172 248.24 175.161 248.318C175.15 248.395 175.109 248.466 175.047 248.513C174.984 248.56 174.906 248.581 174.828 248.57L174.834 248.558Z" fill="#263238"/>
<path d="M149.525 241.162H149.443L145.562 240.025C145.484 240.003 145.418 239.951 145.379 239.881C145.339 239.81 145.329 239.727 145.351 239.649C145.373 239.571 145.424 239.505 145.495 239.466C145.565 239.426 145.648 239.416 145.725 239.438L149.607 240.576C149.644 240.587 149.678 240.605 149.708 240.629C149.738 240.653 149.763 240.683 149.781 240.716C149.8 240.75 149.811 240.787 149.816 240.825C149.82 240.864 149.816 240.902 149.806 240.939C149.79 241.002 149.754 241.059 149.703 241.099C149.653 241.139 149.59 241.162 149.525 241.162Z" fill="#263238"/>
<path d="M154.747 56.0445C154.747 56.0445 142.968 53.3291 140.717 56.367C138.467 59.4049 142.95 62.2786 142.313 62.9179C141.676 63.5571 127.979 70.583 129.09 77.4563C130.2 84.3297 139.443 91.3556 139.764 93.2909C140.086 95.2262 129.09 95.8479 127.657 98.7216C126.225 101.595 124.15 115.178 136.099 119.653C148.048 124.127 162.99 116.615 167.152 116.615C171.315 116.615 175.436 124.767 180.212 124.286C183.122 123.952 185.797 122.525 187.701 120.292C187.701 120.292 192.635 127.165 199.802 124.286C206.969 121.406 215.252 111.342 211.751 108.31C208.249 105.278 204.262 104.316 206.811 101.601C209.36 98.8858 214.615 91.6957 213.826 85.4616C213.037 79.2275 205.7 78.7524 202.836 76.8347C199.971 74.9169 206.022 71.7207 205.864 66.4484C205.706 61.176 201.877 52.3732 182.451 46.5085C163.025 40.6439 153.467 43.4707 152.508 48.4263C152.209 49.7824 152.257 51.1927 152.649 52.5251C153.04 53.8574 153.762 55.0683 154.747 56.0445Z" fill="#263238"/>
<path d="M196.342 125.259C191.788 125.259 188.573 121.781 187.713 120.737C185.781 122.89 183.129 124.258 180.26 124.585C177.6 124.854 175.192 122.632 172.871 120.479C170.883 118.638 169.001 116.902 167.171 116.902C166.054 116.902 164.049 117.488 161.512 118.239C154.819 120.204 144.699 123.171 136.018 119.922C131.868 118.368 129.003 115.606 127.46 111.712C125.414 106.48 126.419 100.569 127.413 98.5866C128.232 96.9504 131.716 96.0355 134.791 95.232C136.936 94.6455 139.602 93.9711 139.467 93.3319C139.333 92.6926 138.146 91.4259 136.726 89.8893C133.867 86.7869 129.541 82.1011 128.799 77.5149C127.822 71.5036 137.421 65.6155 141.04 63.3987C141.543 63.0878 142.022 62.8122 142.098 62.7184C141.908 62.3968 141.693 62.0909 141.455 61.8035C140.485 60.5367 138.859 58.4079 140.479 56.2027C142.443 53.5285 151.001 55.0298 153.877 55.5752C153.083 54.5693 152.523 53.3978 152.239 52.1465C151.955 50.8952 151.953 49.596 152.235 48.3441C152.41 47.5895 152.743 46.881 153.213 46.2661C153.683 45.6512 154.278 45.144 154.959 44.7784C159.829 41.8461 169.889 42.3504 182.546 46.2035C202.749 52.3497 206.017 61.522 206.169 66.4483C206.245 69.0991 204.83 71.2163 203.69 72.8994C202.913 74.0723 202.246 75.0576 202.387 75.779C202.431 75.9476 202.51 76.1052 202.618 76.2424C202.725 76.3795 202.859 76.4932 203.012 76.5766C203.988 77.142 205.021 77.602 206.093 77.9489C209.408 79.1805 213.529 80.717 214.125 85.4146C214.909 91.5432 210.033 98.5925 207.04 101.789C206.819 101.972 206.641 102.201 206.517 102.46C206.393 102.72 206.326 103.003 206.321 103.29C206.414 104.146 207.566 104.926 209.028 105.906C210.044 106.57 211.02 107.294 211.951 108.076C212.347 108.453 212.636 108.93 212.788 109.456C212.94 109.983 212.949 110.541 212.816 111.072C212.079 115.483 205.573 122.28 199.926 124.561C198.786 125.02 197.57 125.257 196.342 125.259ZM187.719 119.981C187.764 119.981 187.809 119.993 187.848 120.014C187.888 120.036 187.922 120.067 187.947 120.104C188 120.169 192.84 126.755 199.709 123.998C205.204 121.793 211.53 115.201 212.237 110.973C212.418 109.882 212.196 109.055 211.571 108.515C210.657 107.755 209.698 107.05 208.7 106.404C207.116 105.337 205.865 104.492 205.736 103.372C205.73 102.998 205.806 102.627 205.959 102.286C206.111 101.944 206.337 101.64 206.619 101.396C209.343 98.4634 214.306 91.4259 213.546 85.4967C212.991 81.1568 209.051 79.6907 205.888 78.5119C204.773 78.1498 203.699 77.6701 202.685 77.0809C202.468 76.9544 202.28 76.7852 202.13 76.5837C201.98 76.3821 201.873 76.1523 201.814 75.908C201.627 74.952 202.322 73.9081 203.205 72.5886C204.298 70.9582 205.655 68.929 205.584 66.4659C205.438 61.6979 202.235 52.8071 182.376 46.7665C169.878 42.9604 159.992 42.4208 155.263 45.2828C154.652 45.6062 154.118 46.0565 153.694 46.6036C153.271 47.1507 152.969 47.782 152.808 48.4555C152.514 49.7678 152.555 51.1333 152.929 52.4252C153.302 53.7171 153.994 54.8934 154.941 55.845C154.99 55.8891 155.023 55.9477 155.036 56.0122C155.048 56.0767 155.04 56.1435 155.012 56.2027C154.982 56.2613 154.933 56.3081 154.874 56.3357C154.815 56.3634 154.748 56.3702 154.684 56.3552C151.457 55.6104 142.706 54.2029 140.97 56.5605C139.613 58.4137 140.97 60.1731 141.94 61.4633C142.525 62.2081 142.928 62.7536 142.525 63.1465C142.154 63.4312 141.764 63.688 141.356 63.9148C138.17 65.8677 128.495 71.8086 129.389 77.4328C130.102 81.843 134.352 86.4526 137.17 89.5022C138.836 91.3086 139.935 92.4991 140.058 93.2498C140.251 94.4227 138.018 95.0092 134.931 95.8126C132.119 96.5457 128.623 97.4606 127.916 98.8622C126.992 100.715 126.022 106.516 127.98 111.506C128.694 113.342 129.799 114.998 131.219 116.359C132.639 117.719 134.339 118.752 136.199 119.383C144.699 122.567 154.702 119.629 161.337 117.688C163.921 116.931 165.955 116.327 167.183 116.327C169.24 116.327 171.205 118.139 173.28 120.057C175.507 122.116 177.811 124.239 180.213 123.998C183.04 123.665 185.64 122.28 187.497 120.116C187.522 120.078 187.554 120.046 187.593 120.023C187.631 119.999 187.675 119.985 187.719 119.981Z" fill="#263238"/>
<path d="M156.872 107.308C156.872 107.308 152.891 132.233 152.733 133.03C152.575 133.828 159.748 141.018 169.452 139.739C175.137 139.054 180.361 136.264 184.102 131.916L181.08 107.149C181.08 107.149 172.796 111.143 167.699 110.985C162.601 110.827 156.872 107.308 156.872 107.308Z" fill="#FFDCDC"/>
<path d="M167.159 140.185C161.943 140.099 156.961 137.998 153.251 134.32C152.357 133.364 152.421 133.059 152.445 132.942C152.597 132.162 156.537 107.483 156.578 107.231C156.586 107.184 156.606 107.139 156.635 107.101C156.665 107.063 156.703 107.032 156.746 107.012C156.79 106.992 156.838 106.983 156.886 106.985C156.934 106.988 156.98 107.002 157.022 107.026C157.08 107.061 162.751 110.504 167.708 110.662C172.665 110.82 180.867 106.897 180.949 106.856C180.991 106.834 181.037 106.823 181.084 106.823C181.13 106.823 181.176 106.834 181.218 106.856C181.258 106.879 181.292 106.911 181.317 106.95C181.343 106.989 181.359 107.033 181.364 107.079L184.392 131.839C184.397 131.878 184.395 131.916 184.385 131.954C184.375 131.991 184.357 132.026 184.334 132.056C180.532 136.449 175.246 139.277 169.491 139.997C168.719 140.111 167.939 140.174 167.159 140.185ZM157.092 107.777C156.548 111.172 153.164 132.344 153 133.088C153.123 133.816 159.916 140.713 169.368 139.452C174.926 138.748 180.038 136.038 183.749 131.828L180.838 107.577C179.154 108.357 172.25 111.413 167.691 111.272C163.265 111.137 158.454 108.562 157.092 107.777Z" fill="#263238"/>
<path d="M155.232 120.679L172.004 117.424L156.869 107.307L155.232 120.679Z" fill="#263238"/>
<path d="M155.234 120.972C155.161 120.97 155.091 120.943 155.035 120.896C155.002 120.863 154.977 120.824 154.962 120.78C154.947 120.736 154.942 120.69 154.947 120.644L156.578 107.272C156.584 107.223 156.603 107.176 156.633 107.136C156.663 107.095 156.702 107.064 156.748 107.044C156.792 107.021 156.841 107.009 156.891 107.009C156.941 107.009 156.99 107.021 157.034 107.044L172.164 117.166C172.213 117.197 172.251 117.242 172.274 117.296C172.297 117.349 172.303 117.408 172.292 117.465C172.28 117.522 172.252 117.575 172.21 117.615C172.168 117.656 172.116 117.684 172.058 117.694L155.292 120.949L155.234 120.972ZM157.105 107.818L155.573 120.315L171.246 117.272L157.105 107.818Z" fill="#263238"/>
<path d="M148.019 85.3329C148.019 85.3329 145.213 81.7672 143.927 86.2712C142.64 90.7753 148.229 96.2411 148.229 96.2411L148.019 85.3329Z" fill="#FFDCDC"/>
<path d="M148.207 96.5109C148.138 96.5076 148.072 96.4807 148.02 96.4346C147.786 96.2059 142.297 90.8163 143.641 86.1949C144.068 84.7288 144.711 83.9019 145.553 83.7377C146.921 83.4737 148.213 85.0865 148.266 85.1569C148.306 85.2065 148.329 85.2685 148.33 85.3328L148.517 96.2176C148.517 96.2755 148.5 96.3322 148.469 96.381C148.438 96.4298 148.394 96.4688 148.342 96.4933C148.298 96.5057 148.253 96.5117 148.207 96.5109ZM145.869 84.2889C145.803 84.2829 145.736 84.2829 145.67 84.2889C145.085 84.4062 144.565 85.1158 144.208 86.3357C143.197 89.8193 146.594 93.9949 147.926 95.4552L147.751 85.4208C147.394 85.0455 146.588 84.2889 145.845 84.2889H145.869Z" fill="#263238"/>
<path d="M188.222 85.3329C188.222 85.3329 191.028 81.7672 192.314 86.2712C193.6 90.7753 188.012 96.2411 188.012 96.2411L188.222 85.3329Z" fill="#FFDCDC"/>
<path d="M188.035 96.5108C187.996 96.5168 187.956 96.5168 187.918 96.5108C187.864 96.4882 187.819 96.4497 187.787 96.4004C187.756 96.3512 187.74 96.2935 187.742 96.2351L187.929 85.3503C187.931 85.2872 187.951 85.2259 187.988 85.1744C188.046 85.104 189.344 83.4854 190.7 83.7552C191.548 83.9194 192.191 84.7463 192.618 86.2124C193.957 90.8338 188.467 96.2234 188.233 96.4521C188.177 96.4959 188.106 96.5168 188.035 96.5108ZM188.508 85.4383L188.356 95.4727C189.683 94.0124 193.086 89.8368 192.074 86.3532C191.718 85.1333 191.209 84.4237 190.607 84.3064C189.8 84.1539 188.876 85.0102 188.508 85.4383Z" fill="#263238"/>
<path d="M156.834 62.8008C156.834 62.8008 148.802 70.6302 147.638 72.976C146.475 75.3219 146.943 102.053 148.223 104.645C149.503 107.237 162.306 117.26 164.398 118.075C166.491 118.89 171.267 119.711 174.991 117.841C178.715 115.97 187.677 106.399 188.612 103.947C189.547 101.496 188.378 73.4511 187.794 70.7826C187.209 68.1142 173.156 58.4786 167.193 58.0153C161.23 57.552 156.834 62.8008 156.834 62.8008Z" fill="#FFDCDC"/>
<path d="M169.652 119.225C167.822 119.234 166.004 118.925 164.279 118.31C162.029 117.43 149.244 107.337 147.946 104.739C146.648 102.141 146.145 75.269 147.361 72.8293C148.53 70.4834 156.13 63.0412 156.604 62.6013C156.896 62.2553 161.28 57.2528 167.202 57.7219C172.984 58.1794 187.412 67.6449 188.066 70.677C188.61 73.1988 189.82 101.496 188.867 104.012C187.868 106.651 178.795 116.216 175.106 118.087C173.399 118.88 171.533 119.27 169.652 119.225ZM166.436 58.2791C161.082 58.2791 157.083 62.9415 157.042 62.9708C156.96 63.047 149.033 70.7884 147.905 73.0521C146.777 75.3159 147.274 102 148.49 104.434C149.706 106.868 162.379 116.885 164.513 117.717C166.758 118.591 171.365 119.254 174.872 117.494C178.631 115.612 187.488 106.023 188.347 103.759C189.288 101.285 188.06 73.2633 187.517 70.7649C186.973 68.2666 173.042 58.7658 167.173 58.3143C166.933 58.3143 166.694 58.2791 166.454 58.2791H166.436Z" fill="#263238"/>
<path d="M163.15 58.0149C163.15 58.0149 175.181 69.0287 183.833 69.4509L192.49 69.8732C192.49 69.8732 173.491 67.3338 167.581 54.4198C167.581 54.4198 161.039 48.9305 163.15 58.0149Z" fill="#263238"/>
<path d="M192.488 70.1666L183.836 69.7443C175.178 69.3221 163.463 58.6895 162.966 58.232C162.924 58.1923 162.894 58.1415 162.879 58.0854C162.183 55.0827 162.335 53.3233 163.346 52.7017C164.843 51.7809 167.491 53.945 167.783 54.1913C167.818 54.2195 167.846 54.2557 167.865 54.2968C173.641 66.9176 192.354 69.5449 192.541 69.586C192.616 69.5949 192.685 69.6329 192.733 69.692C192.781 69.7511 192.804 69.8267 192.798 69.9027C192.789 69.9778 192.752 70.0468 192.695 70.0958C192.637 70.1448 192.563 70.1701 192.488 70.1666ZM163.411 57.8508C164.393 58.7305 175.728 68.7473 183.871 69.1461L188.758 69.3866C182.912 67.9087 171.682 63.9383 167.368 54.5901C166.608 53.9626 164.603 52.6078 163.656 53.1884C163.118 53.5168 162.668 54.5842 163.411 57.8625V57.8508Z" fill="#263238"/>
<path d="M170.818 91.9366C170.745 91.9369 170.674 91.9092 170.62 91.8592C170.565 91.8092 170.532 91.7405 170.526 91.6669L169.597 79.873C169.594 79.8345 169.598 79.7958 169.61 79.759C169.622 79.7223 169.641 79.6882 169.666 79.6588C169.691 79.6294 169.721 79.6052 169.755 79.5877C169.79 79.5701 169.827 79.5594 169.866 79.5564C169.904 79.5533 169.943 79.5578 169.979 79.5697C170.016 79.5816 170.05 79.6006 170.079 79.6257C170.108 79.6507 170.132 79.6813 170.15 79.7157C170.168 79.7501 170.178 79.7876 170.181 79.8261L171.111 91.6199C171.114 91.6585 171.109 91.6973 171.098 91.7341C171.086 91.7709 171.067 91.805 171.042 91.8344C171.017 91.8639 170.986 91.888 170.952 91.9056C170.918 91.9231 170.88 91.9337 170.842 91.9366H170.818Z" fill="#263238"/>
<path d="M168.121 97.5427C166.496 97.5427 164.941 95.7834 164.876 95.6895C164.849 95.661 164.828 95.6272 164.814 95.5901C164.8 95.5531 164.794 95.5136 164.795 95.4741C164.797 95.4345 164.806 95.3957 164.823 95.36C164.84 95.3243 164.864 95.2924 164.894 95.2663C164.924 95.2401 164.958 95.2202 164.996 95.2079C165.033 95.1955 165.073 95.1908 165.112 95.1942C165.152 95.1976 165.19 95.2089 165.225 95.2275C165.259 95.2461 165.29 95.2716 165.315 95.3025C165.315 95.3025 166.765 96.9563 168.121 96.9563C169.237 96.9563 170.927 94.7746 171.488 93.936C171.509 93.9035 171.536 93.8756 171.567 93.8538C171.599 93.832 171.635 93.8169 171.672 93.8092C171.71 93.8015 171.749 93.8016 171.786 93.8092C171.824 93.8169 171.86 93.8321 171.891 93.8539C171.956 93.8969 172 93.9635 172.015 94.0393C172.031 94.1151 172.016 94.1939 171.973 94.2585C171.751 94.5928 169.746 97.5427 168.121 97.5427Z" fill="#263238"/>
<path d="M166.275 102.95C165.919 102.95 165.556 102.95 165.194 102.915C161.593 102.675 158.909 98.2879 158.792 98.1002C158.772 98.0671 158.759 98.0304 158.753 97.9921C158.748 97.9539 158.749 97.9148 158.759 97.8773C158.768 97.8397 158.784 97.8043 158.807 97.7731C158.83 97.742 158.859 97.7156 158.892 97.6956C158.925 97.6756 158.961 97.6623 159 97.6564C159.038 97.6506 159.077 97.6524 159.114 97.6616C159.151 97.6709 159.187 97.6875 159.218 97.7104C159.249 97.7333 159.275 97.7622 159.295 97.7953C159.295 97.8422 161.937 102.106 165.235 102.329C167.633 102.41 170.03 102.138 172.349 101.519C172.427 101.498 172.509 101.508 172.58 101.547C172.65 101.587 172.701 101.653 172.723 101.73C172.745 101.808 172.735 101.891 172.695 101.962C172.656 102.032 172.59 102.084 172.513 102.106C170.475 102.638 168.381 102.922 166.275 102.95Z" fill="#263238"/>
<path d="M171.268 77.9837C171.268 77.9837 175.36 74.9459 176.968 73.8785C178.576 72.8111 183.837 74.811 183.837 74.811C183.837 74.811 179.879 72.5941 177.786 72.2423C175.693 71.8904 171.385 74.9283 171.034 76.3475C170.684 77.7668 169.649 77.3973 171.268 77.9837Z" fill="#263238"/>
<path d="M171.266 78.254C171.233 78.2596 171.2 78.2596 171.167 78.254C170.395 77.9784 170.167 77.8963 170.097 77.6676C170.084 77.5763 170.095 77.4832 170.127 77.3971C170.16 77.3109 170.214 77.2345 170.284 77.1749C170.513 76.9293 170.674 76.6282 170.752 76.3011C171.132 74.7704 175.546 71.6094 177.831 71.9964C179.953 72.3483 183.817 74.5065 183.981 74.5945C184.045 74.6315 184.093 74.691 184.116 74.7614C184.138 74.8318 184.134 74.9082 184.104 74.9757C184.073 75.0431 184.018 75.0963 183.95 75.1246C183.881 75.1529 183.805 75.1542 183.736 75.1282C182.315 74.5886 178.363 73.3688 177.13 74.1664C175.522 75.1985 171.483 78.213 171.442 78.2423C171.385 78.2619 171.325 78.2659 171.266 78.254ZM170.769 77.4623L171.22 77.6324C171.915 77.1104 175.353 74.5651 176.808 73.6268C177.644 73.0873 179.24 73.2456 180.713 73.5682C179.765 73.1056 178.767 72.7553 177.738 72.5242C175.803 72.2076 171.629 75.1516 171.307 76.3949C171.224 76.7988 171.039 77.1744 170.769 77.4857V77.4623Z" fill="#263238"/>
<path d="M162.887 78.5415C162.673 78.0329 162.318 77.5966 161.864 77.2847C161.41 76.9728 160.876 76.7983 160.326 76.7821C158.35 76.6648 149.616 79.0048 151.13 79.0048C152.645 79.0048 158.929 78.8875 160.56 78.8875C161.351 78.9367 162.144 78.8189 162.887 78.5415Z" fill="#263238"/>
<path d="M151.128 79.3038C151.047 79.3153 150.964 79.3038 150.888 79.2706C150.813 79.2375 150.748 79.184 150.702 79.1162C150.674 79.0668 150.66 79.0113 150.66 78.9549C150.66 78.8985 150.674 78.843 150.702 78.7936C151.058 78.2072 158.71 76.395 160.33 76.4947C160.937 76.511 161.526 76.7037 162.026 77.0493C162.526 77.3949 162.916 77.8786 163.147 78.4417C163.171 78.5092 163.17 78.5829 163.144 78.6496C163.119 78.7163 163.07 78.7716 163.007 78.8054C162.222 79.1013 161.384 79.231 160.546 79.1866C159.716 79.1866 157.681 79.1866 155.682 79.2452C153.683 79.3039 151.871 79.3038 151.128 79.3038ZM160.154 77.0811C158.681 77.0811 154.577 78.0723 152.455 78.7057L155.688 78.6587C157.687 78.6294 159.728 78.6001 160.558 78.6001C161.206 78.6144 161.853 78.5395 162.481 78.3772C162.259 77.9906 161.941 77.6682 161.557 77.4411C161.174 77.2141 160.739 77.0901 160.295 77.0811H160.154Z" fill="#263238"/>
<path d="M182.906 85.2209C181.149 85.6206 179.352 85.8174 177.551 85.8074C175.213 85.6901 173.126 84.9864 174.044 86.0361C174.961 87.0859 176.838 88.0243 179.743 87.4378C182.649 86.8513 183.718 86.2707 182.906 85.2209Z" fill="#263238"/>
<path d="M161.839 85.2209C160.083 85.6206 158.286 85.8174 156.485 85.8074C154.146 85.6901 152.065 84.9864 152.977 86.0361C153.889 87.0859 155.771 88.0243 158.683 87.4378C161.594 86.8513 162.634 86.2707 161.839 85.2209Z" fill="#263238"/>
<path d="M123.102 152.524C123.102 152.524 126.609 133.171 128.199 131.277C129.789 129.382 147.152 115.137 148.104 114.181C149.057 113.225 155.909 102.833 156.23 104.111C156.552 105.39 155.435 110.985 153.36 114.017C151.285 117.049 148.426 120.732 148.426 120.732C148.426 120.732 159.124 123.447 159.709 124.086C160.293 124.726 163.976 132.678 164.169 133.669C164.508 135.382 164.017 137.217 162.579 137.346C161.269 137.458 152.705 133.03 152.705 133.03L145.877 133.968C145.877 133.968 140.943 140.038 137.594 141.159C136.091 141.71 134.547 142.137 132.975 142.437L133.139 154.26L123.102 152.524Z" fill="#FFDCDC"/>
<path d="M133.142 154.577H133.09L123.058 152.817C122.98 152.803 122.911 152.759 122.865 152.694C122.823 152.63 122.806 152.553 122.818 152.477C122.964 151.685 126.355 133.047 127.98 131.094C129.044 129.81 136.796 123.324 142.455 118.591C145.319 116.192 147.587 114.298 147.903 113.976C148.219 113.653 149.113 112.398 150.183 110.902C154.345 105.085 155.579 103.607 156.193 103.724C156.272 103.741 156.344 103.78 156.401 103.837C156.458 103.895 156.498 103.967 156.514 104.047C156.859 105.431 155.707 111.114 153.591 114.193C151.907 116.65 149.686 119.565 148.914 120.562C151.405 121.201 159.308 123.265 159.928 123.881C160.548 124.497 164.26 132.578 164.464 133.622C164.602 134.171 164.628 134.741 164.543 135.3C164.458 135.859 164.262 136.395 163.968 136.877C163.809 137.094 163.606 137.275 163.372 137.407C163.138 137.54 162.879 137.621 162.611 137.645C161.278 137.763 153.842 133.962 152.673 133.341L146.032 134.261C145.383 135.053 140.894 140.39 137.69 141.457C136.248 141.969 134.773 142.386 133.277 142.706L133.434 154.277C133.434 154.321 133.424 154.364 133.406 154.403C133.388 154.442 133.362 154.478 133.329 154.506C133.276 154.549 133.21 154.574 133.142 154.577ZM123.467 152.283L132.821 153.908L132.663 142.437C132.664 142.365 132.69 142.296 132.737 142.242C132.784 142.188 132.849 142.153 132.92 142.143C134.474 141.846 136.001 141.422 137.486 140.877C140.707 139.798 145.582 133.839 145.629 133.78C145.676 133.724 145.743 133.686 145.816 133.675L152.697 132.742C152.755 132.731 152.815 132.742 152.866 132.772C156.152 134.467 161.705 137.141 162.582 137.053C162.768 137.036 162.949 136.98 163.112 136.886C163.274 136.793 163.414 136.666 163.523 136.513C163.769 136.098 163.929 135.638 163.997 135.16C164.064 134.682 164.036 134.195 163.915 133.728C163.704 132.672 160.062 124.819 159.536 124.291C159.039 123.852 152.416 122.045 148.365 121.013C148.318 121.001 148.275 120.977 148.239 120.944C148.204 120.911 148.177 120.87 148.162 120.824C148.146 120.778 148.142 120.729 148.15 120.681C148.158 120.633 148.177 120.588 148.207 120.55C148.207 120.509 151.089 116.843 153.129 113.852C155.169 110.861 156.128 105.835 155.988 104.381C155.099 105.038 152.247 109.032 150.662 111.243C149.534 112.82 148.645 114.064 148.324 114.386C148.002 114.709 145.822 116.533 142.835 119.037C137.509 123.488 129.465 130.221 128.43 131.464C127.185 132.959 124.461 146.724 123.467 152.283Z" fill="#263238"/>
<path d="M164.196 133.968C164.148 133.97 164.101 133.958 164.059 133.936C164.017 133.913 163.981 133.88 163.956 133.839C162.103 131.1 159.016 126.632 158.624 126.321C158.233 126.01 153.293 125.265 148.903 124.673C148.825 124.662 148.755 124.621 148.708 124.558C148.661 124.495 148.64 124.416 148.651 124.339C148.662 124.261 148.703 124.191 148.766 124.143C148.828 124.096 148.907 124.075 148.985 124.086C151.183 124.385 158.408 125.388 158.993 125.846C159.577 126.303 163.944 132.76 164.435 133.47C164.457 133.502 164.473 133.538 164.481 133.576C164.489 133.614 164.49 133.653 164.483 133.691C164.476 133.729 164.461 133.766 164.44 133.798C164.419 133.831 164.391 133.859 164.359 133.88C164.314 133.925 164.257 133.955 164.196 133.968Z" fill="#263238"/>
<path d="M163.804 136.39C163.762 136.39 163.72 136.381 163.681 136.363C163.643 136.344 163.609 136.318 163.582 136.285C162.331 134.836 159.829 131.98 159.309 131.54C158.888 131.2 153.954 129.933 149.517 128.913C149.442 128.895 149.377 128.848 149.336 128.782C149.296 128.716 149.283 128.636 149.301 128.561C149.309 128.523 149.325 128.488 149.347 128.456C149.369 128.425 149.397 128.398 149.43 128.378C149.463 128.357 149.499 128.344 149.537 128.338C149.575 128.332 149.614 128.334 149.651 128.344C151.201 128.696 159.005 130.508 159.683 131.094C160.361 131.681 163.874 135.728 164.026 135.903C164.052 135.932 164.071 135.966 164.084 136.002C164.096 136.038 164.101 136.077 164.098 136.115C164.095 136.153 164.085 136.19 164.068 136.225C164.05 136.259 164.026 136.289 163.997 136.314C163.945 136.363 163.876 136.39 163.804 136.39Z" fill="#263238"/>
<path d="M163.993 210.115C163.993 210.115 151.483 207.769 150.986 207.605C150.489 207.441 141.632 204.76 140.463 204.256C139.294 203.752 125.118 201.247 124.451 202.25C123.785 203.253 123.119 209.112 122.949 209.61C122.779 210.109 121.447 212.455 121.78 213.798C121.96 215.017 121.96 216.256 121.78 217.475C121.78 217.475 121.61 225.339 123.61 225.51C125.609 225.68 127.45 218.144 127.45 218.144C127.45 218.144 130.286 219.821 136.12 220.155C141.954 220.489 147.63 217.645 147.63 217.645L163.157 221.352L163.993 210.115Z" fill="#FFDCDC"/>
<path d="M123.688 225.803H123.6C121.437 225.621 121.472 218.83 121.496 217.469C121.672 216.275 121.672 215.062 121.496 213.868C121.203 212.695 122.016 210.936 122.454 210.015C122.554 209.792 122.636 209.616 122.671 209.522C122.706 209.429 122.817 208.707 122.922 207.98C123.331 205.276 123.735 202.79 124.202 202.086C125.079 200.772 139.717 203.617 140.571 203.986C141.424 204.356 146.914 206.051 149.538 206.86L151.052 207.323C151.432 207.446 159.02 208.889 164.024 209.827C164.096 209.84 164.16 209.879 164.204 209.937C164.248 209.994 164.27 210.066 164.264 210.138L163.446 221.352C163.443 221.394 163.432 221.436 163.412 221.473C163.391 221.511 163.363 221.543 163.329 221.568C163.295 221.594 163.256 221.612 163.214 221.62C163.173 221.628 163.13 221.627 163.089 221.615L147.679 217.962C146.896 218.331 141.553 220.765 136.116 220.454C131.346 220.179 128.575 219.035 127.657 218.583C127.189 220.396 125.634 225.803 123.688 225.803ZM125.652 202.297C125.324 202.263 124.993 202.309 124.687 202.432C124.267 203.066 123.775 206.32 123.518 208.068C123.372 209.059 123.296 209.54 123.243 209.704C123.191 209.869 123.115 210.009 122.998 210.261C122.624 211.071 121.829 212.766 122.08 213.727C122.27 214.983 122.27 216.26 122.08 217.516C122.016 220.636 122.46 225.14 123.653 225.216C124.939 225.298 126.494 220.894 127.16 218.079C127.172 218.035 127.193 217.993 127.222 217.958C127.252 217.922 127.288 217.894 127.33 217.874C127.371 217.854 127.416 217.843 127.461 217.843C127.507 217.843 127.552 217.854 127.593 217.874C127.593 217.874 130.451 219.516 136.134 219.844C141.816 220.173 147.44 217.393 147.498 217.364C147.561 217.343 147.628 217.343 147.691 217.364L162.89 220.964L163.68 210.361C161.575 209.968 151.368 208.05 150.889 207.886L149.386 207.423C146.545 206.549 141.266 204.925 140.354 204.532C139.214 204.033 128.949 202.297 125.652 202.297Z" fill="#263238"/>
<path d="M120.723 149.111L137.495 152.19L136.87 162.705C136.87 162.705 140.582 164.464 141.71 174.851C142.838 185.237 146.071 209.294 145.264 211.077C144.458 212.86 139.454 220.636 127.826 221.123C116.199 221.61 109.903 210.918 108.774 207.511C107.646 204.104 113.621 181.818 113.942 179.877C114.264 177.936 115.877 164.629 117.333 162.383C118.23 160.994 119.316 159.739 120.56 158.653L120.723 149.111Z" fill="#FF5050"/>
<path d="M127.056 221.44C115.487 221.44 109.518 210.596 108.501 207.617C107.589 204.878 110.968 191.008 112.78 183.572C113.248 181.648 113.587 180.258 113.657 179.848C113.727 179.437 113.809 178.822 113.938 177.907C114.557 173.45 115.855 164.172 117.089 162.248C117.976 160.872 119.048 159.624 120.275 158.542L120.432 149.117C120.432 149.074 120.442 149.032 120.46 148.994C120.478 148.955 120.505 148.921 120.538 148.894C120.571 148.868 120.61 148.849 120.651 148.839C120.693 148.829 120.736 148.828 120.777 148.836L137.567 151.909C137.638 151.921 137.702 151.96 137.746 152.018C137.79 152.075 137.812 152.147 137.806 152.219L137.175 162.565C137.953 163.069 140.998 165.597 142.004 174.845C142.284 177.437 142.705 180.933 143.173 184.633C144.886 198.896 146.149 209.916 145.558 211.224C145.511 211.318 141.028 220.889 127.863 221.434L127.056 221.44ZM121.011 149.463L120.853 158.671C120.853 158.713 120.844 158.755 120.826 158.794C120.808 158.832 120.781 158.866 120.748 158.893C119.529 159.961 118.462 161.192 117.58 162.553C116.41 164.365 115.083 173.907 114.516 177.977C114.388 178.898 114.288 179.59 114.23 179.936C114.16 180.37 113.821 181.766 113.347 183.695C111.675 190.563 108.197 204.849 109.056 207.435C110.038 210.368 116.101 221.334 127.816 220.836C138.444 220.396 143.822 213.564 145.003 210.966C145.587 209.705 143.834 195.248 142.571 184.692C142.127 180.986 141.706 177.49 141.402 174.898C140.303 164.811 136.754 162.999 136.725 162.981C136.673 162.955 136.631 162.915 136.602 162.865C136.572 162.815 136.558 162.757 136.561 162.7L137.193 152.431L121.011 149.463Z" fill="#263238"/>
<path d="M133.991 161.714C133.041 161.71 132.092 161.649 131.15 161.532C131.073 161.523 131.003 161.485 130.955 161.424C130.906 161.364 130.884 161.287 130.892 161.21C130.903 161.132 130.942 161.062 131.004 161.014C131.065 160.965 131.142 160.943 131.22 160.951C132.139 161.064 133.064 161.123 133.991 161.127C134.068 161.127 134.142 161.158 134.197 161.213C134.252 161.268 134.283 161.343 134.283 161.421C134.283 161.499 134.252 161.573 134.197 161.628C134.142 161.683 134.068 161.714 133.991 161.714Z" fill="#263238"/>
<path d="M127.238 160.858H127.174C124.901 160.353 122.66 159.714 120.462 158.946C120.392 158.918 120.335 158.864 120.303 158.794C120.272 158.724 120.269 158.645 120.295 158.574C120.321 158.502 120.373 158.443 120.442 158.41C120.51 158.376 120.589 158.371 120.661 158.395C122.834 159.155 125.05 159.785 127.296 160.283C127.334 160.292 127.37 160.307 127.401 160.33C127.433 160.352 127.46 160.38 127.481 160.413C127.501 160.446 127.515 160.482 127.522 160.52C127.528 160.558 127.527 160.597 127.518 160.635C127.504 160.699 127.468 160.756 127.417 160.796C127.366 160.837 127.303 160.858 127.238 160.858Z" fill="#263238"/>
<path d="M213.026 154.395L211.36 197.565C211.36 197.565 209.524 197.735 208.858 198.568C208.414 199.145 208.022 199.761 207.688 200.409C207.688 200.409 190.846 201.078 182.838 203.423C178.241 204.735 173.775 206.47 169.497 208.608L162.155 208.449L160.652 227.856L170.497 228.19C170.497 228.19 175.331 231.034 197.347 233.046C219.363 235.057 229.54 235.556 231.873 232.876C234.205 230.196 235.211 226.014 235.544 223.844C235.877 221.674 239.882 208.279 239.882 188.867C239.882 169.455 221.701 141.364 217.697 134.989C213.692 128.614 209.512 129.124 206.689 129.804" fill="#FF5050"/>
<path d="M222.537 234.999C216.954 234.999 208.781 234.377 197.323 233.333C176.594 231.439 171.087 228.835 170.432 228.478L160.664 228.143C160.624 228.144 160.584 228.135 160.548 228.119C160.511 228.103 160.478 228.079 160.452 228.049C160.425 228.019 160.405 227.983 160.393 227.945C160.382 227.907 160.378 227.866 160.383 227.827L161.862 208.45C161.867 208.375 161.9 208.304 161.956 208.254C162.012 208.203 162.085 208.177 162.16 208.18L169.427 208.344C173.705 206.22 178.166 204.489 182.755 203.172C190.273 200.972 205.718 200.239 207.507 200.151C207.829 199.533 208.204 198.944 208.629 198.392C209.214 197.659 210.523 197.395 211.079 197.313L212.733 154.389C212.733 154.35 212.741 154.312 212.756 154.276C212.772 154.24 212.795 154.208 212.823 154.182C212.852 154.155 212.886 154.135 212.922 154.122C212.959 154.109 212.998 154.105 213.037 154.108C213.075 154.109 213.113 154.118 213.148 154.135C213.183 154.151 213.214 154.174 213.24 154.202C213.266 154.23 213.287 154.263 213.3 154.3C213.313 154.336 213.319 154.374 213.318 154.413L211.652 197.583C211.649 197.653 211.621 197.721 211.573 197.773C211.524 197.825 211.459 197.857 211.388 197.864C210.909 197.905 209.57 198.151 209.085 198.755C208.657 199.318 208.277 199.916 207.951 200.544C207.928 200.592 207.893 200.633 207.849 200.662C207.804 200.691 207.753 200.707 207.7 200.708C207.536 200.708 190.799 201.4 182.919 203.711C178.343 205.024 173.896 206.752 169.631 208.872C169.586 208.895 169.536 208.907 169.485 208.907L162.423 208.749L160.968 227.574L170.502 227.897C170.551 227.901 170.599 227.915 170.643 227.938C170.689 227.938 175.752 230.782 197.376 232.753C219.298 234.753 229.446 235.216 231.656 232.683C234.176 229.797 235.047 225.152 235.257 223.798C235.31 223.428 235.462 222.795 235.684 221.827C238.273 211.033 239.584 199.97 239.589 188.868C239.589 176.47 232.288 158.63 217.895 135.845L217.451 135.147C213.294 128.544 208.875 129.588 206.759 130.086C206.683 130.104 206.603 130.091 206.536 130.051C206.469 130.01 206.421 129.945 206.402 129.869C206.393 129.831 206.392 129.792 206.399 129.754C206.405 129.716 206.419 129.68 206.44 129.647C206.461 129.614 206.487 129.586 206.519 129.564C206.551 129.541 206.586 129.526 206.624 129.517C210.056 128.708 214.089 128.708 217.948 134.831L218.386 135.534C232.843 158.407 240.174 176.358 240.174 188.868C240.166 200.015 238.852 211.123 236.257 221.962C236.041 222.877 235.889 223.54 235.836 223.886C235.62 225.281 234.719 230.061 232.095 233.07C230.92 234.413 227.944 234.999 222.537 234.999Z" fill="#263238"/>
<path d="M211.358 197.858C211.307 197.859 211.257 197.846 211.212 197.82C211.168 197.794 211.131 197.756 211.107 197.711C211.073 197.654 211.06 197.586 211.069 197.52C211.079 197.454 211.111 197.393 211.16 197.348L220.834 188.316C220.861 188.289 220.893 188.267 220.928 188.252C220.963 188.237 221.001 188.23 221.039 188.23C221.077 188.23 221.115 188.237 221.15 188.252C221.185 188.267 221.217 188.289 221.244 188.316C221.271 188.343 221.293 188.376 221.308 188.411C221.323 188.447 221.33 188.485 221.33 188.524C221.33 188.563 221.323 188.601 221.308 188.637C221.293 188.673 221.271 188.705 221.244 188.732L212.475 196.943L221.53 194.304C221.608 194.282 221.691 194.292 221.761 194.332C221.831 194.371 221.883 194.437 221.904 194.515C221.926 194.593 221.916 194.676 221.877 194.746C221.837 194.817 221.771 194.868 221.694 194.89L211.458 197.87L211.358 197.858Z" fill="#263238"/>
<path d="M224.8 193.947C224.722 193.957 224.644 193.936 224.582 193.888C224.52 193.84 224.479 193.77 224.469 193.692C224.459 193.614 224.48 193.536 224.528 193.473C224.576 193.411 224.646 193.371 224.724 193.361L227.956 192.422C227.993 192.41 228.032 192.406 228.07 192.41C228.109 192.414 228.146 192.425 228.18 192.444C228.214 192.463 228.244 192.488 228.267 192.518C228.291 192.549 228.309 192.584 228.319 192.621C228.34 192.696 228.332 192.776 228.294 192.844C228.257 192.913 228.194 192.963 228.12 192.985L224.881 193.924C224.856 193.938 224.828 193.946 224.8 193.947Z" fill="#263238"/>
<path d="M222.7 203.212H222.595C218.351 201.57 207.775 200.725 207.664 200.719C207.626 200.716 207.589 200.706 207.554 200.688C207.52 200.671 207.49 200.646 207.465 200.617C207.44 200.588 207.421 200.554 207.409 200.517C207.397 200.48 207.392 200.441 207.395 200.403C207.399 200.364 207.409 200.327 207.427 200.292C207.444 200.258 207.468 200.227 207.498 200.202C207.527 200.177 207.561 200.158 207.598 200.146C207.634 200.134 207.673 200.13 207.711 200.133C208.15 200.168 218.479 200.995 222.805 202.661C222.844 202.668 222.88 202.682 222.913 202.703C222.946 202.724 222.974 202.752 222.997 202.784C223.019 202.816 223.035 202.852 223.043 202.89C223.051 202.929 223.052 202.968 223.045 203.007C223.038 203.045 223.024 203.082 223.003 203.115C222.981 203.148 222.954 203.176 222.922 203.199C222.89 203.221 222.854 203.237 222.816 203.245C222.778 203.253 222.738 203.254 222.7 203.247V203.212Z" fill="#263238"/>
<path d="M225.706 211.915C225.66 211.915 225.616 211.904 225.575 211.884C225.535 211.863 225.499 211.834 225.472 211.798C225.033 211.212 224.554 210.678 224.045 210.144C223.998 210.087 223.975 210.014 223.979 209.94C223.983 209.867 224.015 209.797 224.069 209.746C224.122 209.695 224.192 209.666 224.266 209.664C224.34 209.663 224.411 209.69 224.466 209.74C224.984 210.281 225.474 210.849 225.934 211.44C225.981 211.501 226.003 211.578 225.995 211.655C225.986 211.732 225.947 211.802 225.887 211.851C225.835 211.891 225.771 211.914 225.706 211.915Z" fill="#263238"/>
<path d="M222.213 208.344C222.145 208.342 222.08 208.32 222.026 208.279C219.058 205.868 215.633 204.084 211.959 203.036C211.921 203.027 211.885 203.011 211.853 202.988C211.82 202.965 211.793 202.936 211.772 202.903C211.751 202.869 211.737 202.832 211.731 202.793C211.724 202.754 211.725 202.714 211.734 202.676C211.743 202.637 211.759 202.601 211.782 202.569C211.805 202.536 211.834 202.509 211.867 202.488C211.901 202.467 211.938 202.453 211.977 202.446C212.016 202.44 212.055 202.441 212.094 202.45C215.855 203.516 219.362 205.337 222.4 207.804C222.448 207.842 222.482 207.895 222.498 207.953C222.515 208.012 222.513 208.075 222.492 208.132C222.472 208.19 222.434 208.239 222.384 208.274C222.333 208.309 222.274 208.327 222.213 208.326V208.344Z" fill="#263238"/>
<path d="M169.497 226.976C169.42 226.976 169.345 226.945 169.29 226.89C169.236 226.835 169.205 226.76 169.205 226.682L169.065 210.455C169.064 210.416 169.071 210.378 169.085 210.342C169.098 210.306 169.119 210.274 169.146 210.246C169.173 210.218 169.204 210.196 169.24 210.18C169.275 210.165 169.313 210.157 169.351 210.156C169.428 210.156 169.503 210.187 169.558 210.242C169.612 210.297 169.643 210.371 169.643 210.449L169.813 226.676C169.813 226.755 169.782 226.83 169.728 226.886C169.673 226.942 169.599 226.974 169.52 226.976H169.497Z" fill="#263238"/>
<path d="M168.329 222.959H161.314C161.236 222.959 161.162 222.928 161.107 222.873C161.052 222.818 161.021 222.743 161.021 222.665C161.021 222.587 161.052 222.513 161.107 222.458C161.162 222.403 161.236 222.372 161.314 222.372H168.329C168.406 222.372 168.481 222.403 168.536 222.458C168.59 222.513 168.621 222.587 168.621 222.665C168.62 222.743 168.588 222.816 168.534 222.871C168.479 222.926 168.406 222.957 168.329 222.959Z" fill="#263238"/>
<path d="M162.99 213.417C162.916 213.417 162.844 213.389 162.789 213.338C162.735 213.286 162.702 213.216 162.698 213.141C162.695 213.103 162.701 213.065 162.713 213.029C162.726 212.992 162.746 212.959 162.771 212.931C162.797 212.902 162.828 212.879 162.862 212.863C162.897 212.847 162.934 212.838 162.973 212.836L165.808 212.666C165.846 212.664 165.885 212.669 165.921 212.682C165.957 212.694 165.991 212.714 166.02 212.739C166.049 212.765 166.072 212.796 166.089 212.831C166.106 212.866 166.115 212.903 166.118 212.942C166.121 213.019 166.094 213.095 166.043 213.153C165.992 213.211 165.92 213.247 165.843 213.253L163.008 213.417H162.99Z" fill="#263238"/>
<path d="M255.755 30.5408C255.755 26.7757 253.801 23.382 250.671 20.9351C250.775 20.4419 250.829 19.9391 250.83 19.4349C250.83 14.4172 245.746 10.3463 239.434 10.2298C237.524 5.38685 231.793 1.86938 225.024 1.86938C219.627 1.86938 214.892 4.10512 212.226 7.46966C211.55 7.37278 210.868 7.32411 210.185 7.32401C203.743 7.32401 198.513 11.4459 198.513 16.5292C198.515 17.3938 198.667 18.2514 198.963 19.0635C194.86 21.2483 192.15 24.8895 192.15 29.0988C192.15 33.1261 194.663 36.6945 198.52 38.8866C198.517 38.9302 198.517 38.9741 198.52 39.0177C198.52 43.948 203.445 47.9752 209.626 48.2083C213.04 51.551 218.262 53.6847 224.152 53.6847C228.001 53.716 231.792 52.7395 235.149 50.8518C235.665 50.9028 236.195 50.9392 236.732 50.9392C243.182 50.9392 248.405 46.8173 248.405 41.7341V41.6394C252.821 39.2143 255.755 35.1434 255.755 30.5408Z" fill="#FF5050"/>
<path d="M178.539 42.0329C178.539 43.1471 177.254 44.0502 175.634 44.0502C174.014 44.0502 172.729 43.1471 172.729 42.0329C172.729 40.9187 174.014 40.0156 175.634 40.0156C177.254 40.0156 178.539 40.9187 178.539 42.0329Z" fill="#FF5050"/>
<path d="M188.381 34.6628C188.381 36.3597 186.413 37.7361 183.98 37.7361C181.546 37.7361 179.578 36.3597 179.578 34.6628C179.578 32.966 181.554 31.5896 183.98 31.5896C186.406 31.5896 188.381 32.966 188.381 34.6628Z" fill="#FF5050"/>
<path opacity="0.6" d="M255.755 30.5408C255.755 26.7757 253.801 23.382 250.671 20.9351C250.775 20.4419 250.829 19.9391 250.83 19.4349C250.83 14.4172 245.746 10.3463 239.434 10.2298C237.524 5.38685 231.793 1.86938 225.024 1.86938C219.627 1.86938 214.892 4.10512 212.226 7.46966C211.55 7.37278 210.868 7.32411 210.185 7.32401C203.743 7.32401 198.513 11.4459 198.513 16.5292C198.515 17.3938 198.667 18.2514 198.963 19.0635C194.86 21.2483 192.15 24.8895 192.15 29.0988C192.15 33.1261 194.663 36.6945 198.52 38.8866C198.517 38.9302 198.517 38.9741 198.52 39.0177C198.52 43.948 203.445 47.9752 209.626 48.2083C213.04 51.551 218.262 53.6847 224.152 53.6847C228.001 53.716 231.792 52.7395 235.149 50.8518C235.665 50.9028 236.195 50.9392 236.732 50.9392C243.182 50.9392 248.405 46.8173 248.405 41.7341V41.6394C252.821 39.2143 255.755 35.1434 255.755 30.5408Z" fill="white"/>
<path opacity="0.6" d="M178.539 42.0329C178.539 43.1471 177.254 44.0502 175.634 44.0502C174.014 44.0502 172.729 43.1471 172.729 42.0329C172.729 40.9187 174.014 40.0156 175.634 40.0156C177.254 40.0156 178.539 40.9187 178.539 42.0329Z" fill="white"/>
<path opacity="0.6" d="M188.381 34.6628C188.381 36.3597 186.413 37.7361 183.98 37.7361C181.546 37.7361 179.578 36.3597 179.578 34.6628C179.578 32.966 181.554 31.5896 183.98 31.5896C186.406 31.5896 188.381 32.966 188.381 34.6628Z" fill="white"/>
<path d="M216.171 17.8694H204.332V23.5643H216.171V17.8694Z" fill="#FF5050"/>
<path opacity="0.8" d="M216.171 17.8694H204.332V23.5643H216.171V17.8694Z" fill="white"/>
<path d="M229.425 17.8694H217.586V23.5643H229.425V17.8694Z" fill="#FF5050"/>
<path opacity="0.8" d="M229.425 17.8694H217.586V23.5643H229.425V17.8694Z" fill="white"/>
<path d="M242.687 17.8694H230.848V23.5643H242.687V17.8694Z" fill="#FF5050"/>
<path opacity="0.8" d="M242.687 17.8694H230.848V23.5643H242.687V17.8694Z" fill="white"/>
<path d="M209.952 24.6711H198.113V30.3661H209.952V24.6711Z" fill="#FF5050"/>
<path opacity="0.8" d="M209.952 24.6711H198.113V30.3661H209.952V24.6711Z" fill="white"/>
<path d="M223.2 24.6711H211.361V30.3661H223.2V24.6711Z" fill="#FF5050"/>
<path opacity="0.8" d="M223.2 24.6711H211.361V30.3661H223.2V24.6711Z" fill="white"/>
<path d="M236.47 24.6711H224.631V30.3661H236.47V24.6711Z" fill="#FF5050"/>
<path opacity="0.8" d="M236.47 24.6711H224.631V30.3661H236.47V24.6711Z" fill="white"/>
<path d="M249.792 24.6711H237.953V30.3661H249.792V24.6711Z" fill="#FF5050"/>
<path opacity="0.8" d="M249.792 24.6711H237.953V30.3661H249.792V24.6711Z" fill="white"/>
<path d="M216.171 31.8154H204.332V37.5104H216.171V31.8154Z" fill="#FF5050"/>
<path opacity="0.8" d="M216.171 31.8154H204.332V37.5104H216.171V31.8154Z" fill="white"/>
<path d="M229.425 31.8154H217.586V37.5104H229.425V31.8154Z" fill="#FF5050"/>
<path opacity="0.8" d="M229.425 31.8154H217.586V37.5104H229.425V31.8154Z" fill="white"/>
<path d="M242.687 31.8154H230.848V37.5104H242.687V31.8154Z" fill="#FF5050"/>
<path opacity="0.8" d="M242.687 31.8154H230.848V37.5104H242.687V31.8154Z" fill="white"/>
<path d="M222.49 11.0671H210.65V16.7621H222.49V11.0671Z" fill="#FF5050"/>
<path opacity="0.8" d="M222.49 11.0671H210.65V16.7621H222.49V11.0671Z" fill="white"/>
<path d="M235.759 11.0671H223.92V16.7621H235.759V11.0671Z" fill="#FF5050"/>
<path opacity="0.8" d="M235.759 11.0671H223.92V16.7621H235.759V11.0671Z" fill="white"/>
<path d="M223.2 38.6172H211.361V44.3121H223.2V38.6172Z" fill="#FF5050"/>
<path opacity="0.8" d="M223.2 38.6172H211.361V44.3121H223.2V38.6172Z" fill="white"/>
<path d="M236.47 38.6172H224.631V44.3121H236.47V38.6172Z" fill="#FF5050"/>
<path opacity="0.8" d="M236.47 38.6172H224.631V44.3121H236.47V38.6172Z" fill="white"/>
<path d="M227.58 22.479C227.522 20.1704 225.547 18.6338 222.445 18.6848C219.467 18.7285 217.325 19.9082 215.974 21.9474L212.008 19.4203C214.187 16.2597 217.746 14.3225 222.779 14.2351C228.692 14.155 232.715 16.8569 232.846 21.5832C233.035 28.2977 226.171 29.0114 226.309 33.8689L221.225 33.9417C221.007 27.8462 227.697 26.5936 227.58 22.479ZM220.724 40.5761C220.705 40.1545 220.772 39.7335 220.922 39.3392C221.072 38.9448 221.302 38.5856 221.596 38.2838C221.89 37.982 222.243 37.744 222.633 37.5846C223.022 37.4252 223.441 37.3478 223.862 37.3572C224.282 37.3416 224.702 37.4107 225.095 37.5602C225.489 37.7098 225.848 37.9369 226.153 38.2281C226.458 38.5192 226.701 38.8687 226.869 39.2557C227.037 39.6427 227.125 40.0595 227.13 40.4814C227.151 40.9015 227.086 41.3215 226.94 41.7157C226.793 42.1099 226.569 42.4702 226.279 42.7747C225.99 43.0792 225.642 43.3215 225.256 43.4869C224.871 43.6522 224.455 43.7373 224.036 43.7367C223.61 43.7523 223.186 43.6824 222.787 43.5311C222.389 43.3798 222.025 43.1501 221.716 42.8557C221.407 42.5612 221.161 42.2078 220.99 41.8164C220.82 41.4249 220.729 41.0032 220.724 40.5761Z" fill="#FF5050"/>
<path d="M272.162 238.356H10.5605V255.309H272.162V238.356Z" fill="#263238"/>
<path opacity="0.3" d="M272.162 238.356H10.5605V255.309H272.162V238.356Z" fill="white"/>
<path d="M273.135 232.704H9.57945C8.09122 232.704 6.88477 233.914 6.88477 235.406V241.305C6.88477 242.797 8.09122 244.007 9.57945 244.007H273.135C274.623 244.007 275.83 242.797 275.83 241.305V235.406C275.83 233.914 274.623 232.704 273.135 232.704Z" fill="#263238"/>
<path opacity="0.4" d="M273.135 232.704H9.57945C8.09122 232.704 6.88477 233.914 6.88477 235.406V241.305C6.88477 242.797 8.09122 244.007 9.57945 244.007H273.135C274.623 244.007 275.83 242.797 275.83 241.305V235.406C275.83 233.914 274.623 232.704 273.135 232.704Z" fill="white"/>
<path d="M75.363 220.266H23.9316V231.197H75.363V220.266Z" fill="#263238"/>
<path opacity="0.8" d="M75.363 220.266H23.9316V231.197H75.363V220.266Z" fill="white"/>
<path opacity="0.5" d="M74.6366 222.414H23.9316V222.91H74.6366V222.414Z" fill="white"/>
<path opacity="0.5" d="M74.6366 225.233H23.9316V225.729H74.6366V225.233Z" fill="white"/>
<path opacity="0.5" d="M74.6366 228.182H23.9316V228.678H74.6366V228.182Z" fill="white"/>
<path d="M74.9281 218.758H22.7413C22.6825 218.757 22.6242 218.768 22.5696 218.79C22.515 218.812 22.4653 218.844 22.4233 218.886C22.3814 218.927 22.3481 218.976 22.3254 219.031C22.3027 219.085 22.291 219.143 22.291 219.202V220.579C22.291 220.699 22.3385 220.813 22.4229 220.898C22.5074 220.983 22.6219 221.03 22.7413 221.03H72.6329C72.7502 221.03 72.8664 221.053 72.9748 221.098C73.0831 221.143 73.1816 221.209 73.2646 221.293C73.3475 221.376 73.4133 221.475 73.4582 221.583C73.5031 221.692 73.5262 221.808 73.5262 221.926V229.689C73.5262 229.927 73.4321 230.155 73.2646 230.323C73.097 230.491 72.8698 230.585 72.6329 230.585H22.6832C22.6317 230.585 22.5807 230.595 22.5331 230.615C22.4856 230.635 22.4423 230.664 22.4059 230.7C22.3695 230.737 22.3406 230.78 22.3209 230.828C22.3012 230.875 22.291 230.927 22.291 230.978V232.311C22.291 232.363 22.3012 232.414 22.3209 232.461C22.3406 232.509 22.3695 232.552 22.4059 232.589C22.4423 232.626 22.4856 232.655 22.5331 232.674C22.5807 232.694 22.6317 232.704 22.6832 232.704H74.9789C75.3642 232.704 75.7337 232.551 76.0061 232.278C76.2785 232.004 76.4316 231.634 76.4316 231.248V220.324C76.4364 220.122 76.4012 219.921 76.3281 219.732C76.255 219.544 76.1453 219.372 76.0055 219.227C75.8657 219.081 75.6985 218.965 75.5136 218.884C75.3286 218.804 75.1296 218.761 74.9281 218.758Z" fill="#FF5050"/>
<path d="M75.363 206.276H23.9316V217.207H75.363V206.276Z" fill="#263238"/>
<path opacity="0.9" d="M75.363 206.276H23.9316V217.207H75.363V206.276Z" fill="white"/>
<path opacity="0.7" d="M74.6366 207.973H23.9316V208.469H74.6366V207.973Z" fill="white"/>
<path opacity="0.7" d="M74.6366 209.99H23.9316V210.486H74.6366V209.99Z" fill="white"/>
<path opacity="0.7" d="M74.6366 212.219H23.9316V212.714H74.6366V212.219Z" fill="white"/>
<path opacity="0.7" d="M74.6366 214.236H23.9316V214.732H74.6366V214.236Z" fill="white"/>
<path d="M74.9281 204.769H22.7413C22.6219 204.769 22.5074 204.816 22.4229 204.901C22.3385 204.985 22.291 205.1 22.291 205.22V206.582C22.291 206.641 22.3027 206.699 22.3254 206.754C22.3481 206.808 22.3814 206.857 22.4233 206.899C22.4653 206.94 22.515 206.973 22.5696 206.994C22.6242 207.016 22.6825 207.027 22.7413 207.026H72.6329C72.8698 207.026 73.097 207.121 73.2646 207.288C73.4321 207.456 73.5262 207.684 73.5262 207.922V215.692C73.5262 215.93 73.4321 216.158 73.2646 216.326C73.097 216.494 72.8698 216.588 72.6329 216.588H22.6832C22.6317 216.588 22.5807 216.598 22.5331 216.618C22.4856 216.638 22.4423 216.667 22.4059 216.703C22.3695 216.74 22.3406 216.783 22.3209 216.831C22.3012 216.879 22.291 216.93 22.291 216.981V218.307C22.291 218.358 22.3012 218.41 22.3209 218.457C22.3406 218.505 22.3695 218.548 22.4059 218.585C22.4423 218.621 22.4856 218.65 22.5331 218.67C22.5807 218.69 22.6317 218.7 22.6832 218.7H74.9789C75.3642 218.7 75.7337 218.547 76.0061 218.273C76.2785 218 76.4315 217.63 76.4315 217.244V206.32C76.4355 205.915 76.2797 205.524 75.9981 205.234C75.7166 204.943 75.332 204.776 74.9281 204.769Z" fill="#FF5050"/>
<path opacity="0.3" d="M74.9281 204.769H22.7413C22.6219 204.769 22.5074 204.816 22.4229 204.901C22.3385 204.985 22.291 205.1 22.291 205.22V206.582C22.291 206.641 22.3027 206.699 22.3254 206.754C22.3481 206.808 22.3814 206.857 22.4233 206.899C22.4653 206.94 22.515 206.973 22.5696 206.994C22.6242 207.016 22.6825 207.027 22.7413 207.026H72.6329C72.8698 207.026 73.097 207.121 73.2646 207.288C73.4321 207.456 73.5262 207.684 73.5262 207.922V215.692C73.5262 215.93 73.4321 216.158 73.2646 216.326C73.097 216.494 72.8698 216.588 72.6329 216.588H22.6832C22.6317 216.588 22.5807 216.598 22.5331 216.618C22.4856 216.638 22.4423 216.667 22.4059 216.703C22.3695 216.74 22.3406 216.783 22.3209 216.831C22.3012 216.879 22.291 216.93 22.291 216.981V218.307C22.291 218.358 22.3012 218.41 22.3209 218.457C22.3406 218.505 22.3695 218.548 22.4059 218.585C22.4423 218.621 22.4856 218.65 22.5331 218.67C22.5807 218.69 22.6317 218.7 22.6832 218.7H74.9789C75.3642 218.7 75.7337 218.547 76.0061 218.273C76.2785 218 76.4315 217.63 76.4315 217.244V206.32C76.4355 205.915 76.2797 205.524 75.9981 205.234C75.7166 204.943 75.332 204.776 74.9281 204.769Z" fill="white"/>
<path d="M75.363 196.386H23.9316V203.261H75.363V196.386Z" fill="#263238"/>
<path opacity="0.8" d="M75.363 196.386H23.9316V203.261H75.363V196.386Z" fill="white"/>
<path opacity="0.5" d="M74.6366 197.843H23.9316V198.339H74.6366V197.843Z" fill="white"/>
<path opacity="0.5" d="M74.6366 200.69H23.9316V201.186H74.6366V200.69Z" fill="white"/>
<path d="M22.2911 194.515V196.248C22.2901 196.284 22.2964 196.319 22.3095 196.352C22.3227 196.385 22.3424 196.415 22.3676 196.441C22.3928 196.466 22.4228 196.486 22.4558 196.499C22.4889 196.512 22.5243 196.518 22.5599 196.517H73.2794C73.3507 196.517 73.419 196.546 73.4694 196.596C73.5198 196.647 73.5481 196.715 73.5481 196.787V201.936C73.5481 202.129 73.4716 202.314 73.3354 202.45C73.1992 202.587 73.0144 202.664 72.8218 202.664H22.5599C22.5249 202.663 22.4901 202.669 22.4576 202.682C22.425 202.694 22.3953 202.714 22.3703 202.738C22.3452 202.762 22.3253 202.792 22.3117 202.824C22.2981 202.856 22.2911 202.891 22.2911 202.926V204.514C22.2911 204.549 22.2981 204.583 22.3117 204.616C22.3253 204.648 22.3452 204.677 22.3703 204.702C22.3953 204.726 22.425 204.745 22.4576 204.758C22.4901 204.771 22.5249 204.777 22.5599 204.776H75.1606C75.5035 204.776 75.8323 204.639 76.0748 204.396C76.3172 204.153 76.4534 203.823 76.4534 203.479V194.522C76.4535 194.452 76.4262 194.384 76.3773 194.334C76.3285 194.284 76.262 194.254 76.192 194.252H22.5599C22.4898 194.252 22.4225 194.28 22.3724 194.329C22.3222 194.378 22.293 194.444 22.2911 194.515Z" fill="#FF5050"/>
<path d="M214.565 171.372C216.658 172.287 221.762 172.169 221.767 172.169C221.773 172.169 220.668 168.815 220.569 168.609C219.452 166.264 215.892 162.375 213.028 162.745C212.551 162.823 212.095 163.001 211.691 163.267C211.287 163.533 210.944 163.882 210.683 164.29C210.422 164.698 210.25 165.157 210.178 165.637C210.105 166.116 210.134 166.605 210.263 167.073C210.742 169.102 212.788 170.592 214.565 171.372Z" fill="#263238"/>
<path d="M216.332 186.209C218.495 186.526 223.055 185.2 223.417 185.095C224.168 187.71 225.092 190.273 226.182 192.766C226.808 194.22 227.486 195.669 228.182 197.111C227.767 196.525 227.387 195.938 227.328 195.886C225.627 193.915 221.19 191.106 218.513 192.25C218.073 192.451 217.68 192.744 217.361 193.108C217.041 193.472 216.802 193.899 216.658 194.362C216.514 194.825 216.469 195.314 216.526 195.795C216.582 196.277 216.739 196.742 216.987 197.158C217.975 198.965 220.342 199.856 222.248 200.137C224.154 200.419 228.094 199.369 229.135 199.076C229.403 199.627 229.672 200.179 229.947 200.73C231.268 203.363 232.595 206.008 233.817 208.606C234.25 209.527 234.641 210.448 235.039 211.368C234.671 210.829 234.355 210.377 234.296 210.313C232.595 208.342 228.158 205.533 225.481 206.677C225.041 206.878 224.649 207.17 224.33 207.533C224.01 207.897 223.77 208.324 223.627 208.786C223.483 209.249 223.437 209.737 223.494 210.218C223.551 210.699 223.708 211.163 223.955 211.579C224.943 213.386 227.311 214.283 229.216 214.559C231.122 214.834 234.688 213.896 235.916 213.55C236.29 214.512 236.67 215.468 236.991 216.412C237.196 217.063 237.442 217.673 237.611 218.336C237.781 218.998 237.973 219.637 238.149 220.277C238.447 221.526 238.763 222.81 239.026 224.03C239.213 224.88 239.377 225.696 239.54 226.517C239.125 225.596 238.266 223.807 238.172 223.666C236.793 221.456 232.829 218.007 229.988 218.728C229.523 218.861 229.09 219.09 228.719 219.402C228.348 219.713 228.047 220.099 227.834 220.535C227.622 220.971 227.504 221.447 227.487 221.932C227.47 222.417 227.556 222.9 227.737 223.35C228.445 225.285 230.66 226.528 232.502 227.097C234.548 227.719 239.067 227.15 239.634 227.097C239.903 228.452 240.154 229.777 240.37 231.027C240.487 231.689 240.592 232.311 240.692 232.933H242.492C242.358 232.217 242.218 231.478 242.066 230.71C241.797 229.332 241.481 227.866 241.142 226.358C242.505 225.813 243.834 225.186 245.123 224.482C246.614 226.1 250.425 228 250.922 228.235C250.402 229.514 249.882 230.757 249.379 231.918C249.227 232.27 249.075 232.598 248.929 232.933H250.823L250.963 232.592C251.501 231.296 252.039 229.895 252.588 228.452C253.132 228.569 257.61 229.484 259.697 229.009C261.591 228.581 263.882 227.508 264.73 225.631C264.944 225.197 265.065 224.722 265.084 224.237C265.103 223.753 265.021 223.269 264.841 222.819C264.662 222.369 264.391 221.961 264.044 221.623C263.697 221.285 263.284 221.024 262.83 220.857C260.071 219.925 255.862 223.068 254.319 225.168C254.231 225.291 253.389 226.74 252.881 227.666C253.097 227.08 253.319 226.493 253.535 225.907C253.974 224.734 254.377 223.491 254.821 222.189C255.008 221.549 255.201 220.904 255.406 220.253C255.611 219.602 255.751 218.91 255.926 218.236C256.3 216.652 256.604 215.034 256.873 213.397C257.926 213.779 261.679 215.092 263.619 214.952C265.56 214.811 267.986 214.101 269.109 212.377C269.385 211.979 269.575 211.527 269.665 211.051C269.756 210.574 269.746 210.084 269.636 209.612C269.526 209.139 269.318 208.696 269.025 208.309C268.733 207.923 268.363 207.602 267.94 207.369C265.35 206.031 260.714 208.495 258.873 210.336C258.761 210.448 257.586 211.92 256.955 212.735C257.113 211.75 257.271 210.77 257.394 209.767C257.75 206.87 258.025 203.932 258.311 201C258.399 200.102 258.493 199.205 258.586 198.314C258.96 198.454 263.391 200.108 265.566 199.956C267.501 199.815 269.933 199.105 271.05 197.375C271.327 196.977 271.517 196.525 271.608 196.049C271.7 195.572 271.69 195.082 271.58 194.609C271.469 194.137 271.261 193.693 270.968 193.306C270.675 192.92 270.305 192.6 269.88 192.367C267.296 191.03 262.661 193.499 260.819 195.334C260.679 195.475 258.995 197.592 258.592 198.149C258.802 196.179 259.025 194.214 259.329 192.285C259.719 189.68 260.28 187.104 261.006 184.573C261.176 184.643 265.788 186.385 268.021 186.232C269.956 186.092 272.382 185.382 273.505 183.652C273.782 183.254 273.972 182.802 274.064 182.326C274.155 181.849 274.145 181.358 274.035 180.886C273.924 180.413 273.716 179.969 273.423 179.583C273.131 179.197 272.76 178.877 272.336 178.644C269.752 177.306 265.116 179.775 263.275 181.611C263.128 181.758 261.316 184.033 261.018 184.473C261.059 184.326 261.088 184.168 261.135 184.021C261.933 181.504 262.952 179.062 264.181 176.726C264.841 175.43 265.543 174.227 266.256 173.066C267.086 173.483 270.88 175.33 272.903 175.412C274.925 175.494 277.334 175.049 278.638 173.459C278.957 173.096 279.197 172.669 279.342 172.207C279.487 171.744 279.533 171.256 279.478 170.775C279.423 170.293 279.268 169.828 279.022 169.411C278.777 168.993 278.446 168.632 278.053 168.351C275.627 166.738 270.751 168.679 268.7 170.304C268.588 170.392 267.565 171.412 266.835 172.169C267.162 171.653 267.489 171.113 267.817 170.621C269.033 168.785 270.26 167.178 271.359 165.759C271.991 164.961 272.575 164.252 273.113 163.589C274.136 163.589 278.252 163.448 280.052 162.598C281.853 161.747 283.817 160.252 284.244 158.211C284.359 157.74 284.374 157.25 284.288 156.773C284.202 156.296 284.018 155.843 283.746 155.442C283.474 155.041 283.122 154.702 282.711 154.446C282.3 154.191 281.84 154.025 281.362 153.959C278.474 153.648 275.036 157.625 273.978 160.006C273.885 160.211 272.809 163.595 272.879 163.595H272.944C272.394 164.216 271.815 164.891 271.19 165.642C270.056 167.037 268.793 168.621 267.53 170.439C266.151 172.386 264.884 174.41 263.736 176.503C262.442 178.841 261.359 181.291 260.498 183.822C260.498 183.851 260.498 183.887 260.498 183.916C260.498 183.06 260.498 180.667 260.451 180.485C260.118 177.899 257.961 173.101 255.096 172.574C254.619 172.499 254.131 172.526 253.665 172.653C253.198 172.78 252.764 173.004 252.389 173.31C252.015 173.617 251.709 173.999 251.492 174.432C251.274 174.864 251.15 175.338 251.127 175.823C250.963 177.875 252.442 179.928 253.892 181.23C255.523 182.69 260.053 184.104 260.416 184.215C259.603 186.813 258.963 189.461 258.498 192.144C258.224 193.71 257.99 195.287 257.779 196.877C257.779 196.138 257.779 195.475 257.744 195.387C257.405 192.801 255.248 188.004 252.389 187.47C251.912 187.394 251.423 187.421 250.956 187.547C250.489 187.674 250.054 187.897 249.679 188.204C249.304 188.511 248.997 188.893 248.779 189.326C248.562 189.76 248.437 190.234 248.414 190.719C248.251 192.771 249.735 194.824 251.179 196.126C252.623 197.428 256.487 198.73 257.505 199.058C257.434 199.645 257.353 200.278 257.277 200.888C256.926 203.82 256.593 206.753 256.178 209.603C256.031 210.606 255.85 211.597 255.669 212.582C255.669 211.925 255.669 211.374 255.634 211.286C255.301 208.706 253.144 203.908 250.285 203.375C249.807 203.299 249.319 203.326 248.852 203.452C248.385 203.579 247.949 203.802 247.574 204.109C247.199 204.416 246.893 204.798 246.675 205.231C246.457 205.664 246.333 206.139 246.31 206.624C246.146 208.676 247.625 210.729 249.075 212.031C250.525 213.333 254.009 214.506 255.219 214.899C255.008 215.902 254.798 216.91 254.547 217.878C254.36 218.535 254.225 219.174 254.003 219.825C253.781 220.476 253.588 221.109 253.383 221.743C252.945 222.951 252.501 224.194 252.045 225.361C251.735 226.171 251.425 226.939 251.115 227.707C251.273 226.71 251.536 224.74 251.542 224.576C251.511 222.283 250.893 220.037 249.747 218.054C249.758 217.797 249.742 217.54 249.7 217.286C249.641 216.804 249.481 216.341 249.231 215.925C248.981 215.51 248.647 215.152 248.249 214.875C247.852 214.599 247.401 214.409 246.926 214.319C246.451 214.229 245.962 214.241 245.491 214.353C242.679 215.104 240.896 220.054 240.762 222.658C240.762 222.81 240.856 224.488 240.937 225.543C240.797 224.927 240.663 224.329 240.511 223.702C240.218 222.452 239.885 221.215 239.534 219.884C239.341 219.25 239.149 218.605 238.95 217.954C238.751 217.303 238.494 216.646 238.266 215.984C237.71 214.459 237.097 212.94 236.401 211.421C237.488 211.163 241.341 210.178 242.884 208.987C244.427 207.797 246.058 205.861 246.041 203.803C246.052 203.319 245.962 202.839 245.777 202.393C245.591 201.947 245.314 201.544 244.963 201.213C244.613 200.881 244.196 200.627 243.741 200.467C243.287 200.307 242.803 200.244 242.323 200.284C239.429 200.601 236.921 205.222 236.395 207.773C236.366 207.932 236.191 209.808 236.115 210.84C235.705 209.931 235.296 209.022 234.846 208.119C233.554 205.504 232.169 202.906 230.789 200.302C230.368 199.504 229.959 198.701 229.544 197.903C229.935 197.815 234.536 196.73 236.266 195.411C237.81 194.238 239.441 192.285 239.423 190.226C239.435 189.743 239.345 189.262 239.159 188.816C238.973 188.37 238.696 187.968 238.346 187.636C237.995 187.304 237.579 187.05 237.124 186.89C236.669 186.73 236.186 186.668 235.705 186.707C232.817 187.024 230.304 191.645 229.778 194.197C229.742 194.39 229.497 197.088 229.468 197.774C228.556 196.015 227.667 194.255 226.86 192.496C225.752 190.108 224.803 187.649 224.019 185.136C224.201 185.095 229.006 183.998 230.783 182.637C232.321 181.464 233.957 179.511 233.94 177.453C233.95 176.97 233.86 176.49 233.674 176.044C233.488 175.598 233.211 175.196 232.86 174.865C232.51 174.533 232.094 174.279 231.639 174.119C231.185 173.958 230.702 173.896 230.222 173.934C227.328 174.245 224.82 178.872 224.294 181.423C224.253 181.623 223.996 184.526 223.984 185.054C223.938 184.907 223.879 184.76 223.832 184.614C223.115 182.074 222.622 179.476 222.359 176.849C222.201 175.4 222.125 174.005 222.084 172.644C223.002 172.533 227.182 171.975 228.912 170.92C230.643 169.864 232.42 168.169 232.619 166.117C232.685 165.636 232.65 165.147 232.516 164.681C232.382 164.215 232.151 163.783 231.838 163.413C231.526 163.043 231.14 162.743 230.704 162.532C230.268 162.322 229.793 162.207 229.31 162.193C226.387 162.193 223.4 166.504 222.599 168.984C222.558 169.119 222.266 170.539 222.067 171.577C222.067 170.961 222.038 170.327 222.038 169.741C222.038 167.536 222.184 165.513 222.318 163.724C222.406 162.709 222.505 161.789 222.605 160.932C223.446 160.346 226.814 158 227.866 156.27C228.918 154.54 229.702 152.206 228.947 150.288C228.785 149.831 228.529 149.413 228.196 149.062C227.862 148.711 227.458 148.435 227.011 148.25C226.564 148.066 226.083 147.978 225.6 147.993C225.117 148.008 224.642 148.124 224.206 148.335C221.623 149.678 220.944 154.898 221.371 157.466C221.406 157.689 222.382 161.096 222.429 161.067L222.476 161.032C222.365 161.853 222.254 162.739 222.149 163.706C221.973 165.495 221.786 167.518 221.739 169.735C221.656 172.121 221.713 174.51 221.909 176.89C222.113 179.558 222.555 182.201 223.23 184.79C223.238 184.822 223.248 184.853 223.259 184.884C222.798 184.162 221.453 182.186 221.33 182.045C219.635 180.075 215.192 177.271 212.515 178.409C212.075 178.611 211.683 178.903 211.363 179.267C211.043 179.631 210.804 180.059 210.66 180.522C210.516 180.985 210.471 181.473 210.528 181.955C210.584 182.437 210.741 182.901 210.989 183.318C212.047 185.036 214.415 185.927 216.332 186.209Z" fill="#263238"/>
<path d="M266.221 172.486C266.268 172.515 267.15 169.079 267.18 168.856C267.542 166.275 266.718 161.073 264.099 159.807C263.658 159.609 263.182 159.507 262.699 159.507C262.217 159.506 261.74 159.607 261.299 159.804C260.858 160 260.463 160.287 260.14 160.646C259.816 161.005 259.572 161.429 259.422 161.889C258.721 163.824 259.609 166.199 260.661 167.835C261.895 169.765 266.221 172.486 266.221 172.486Z" fill="#263238"/>
<path d="M129.206 232.734H161.476C161.538 232.733 161.598 232.719 161.653 232.692C161.708 232.665 161.757 232.626 161.795 232.578C161.833 232.53 161.86 232.474 161.874 232.414C161.888 232.354 161.889 232.292 161.876 232.231C161.547 230.717 161.215 229.207 160.881 227.702C160.861 227.61 160.811 227.527 160.738 227.468C160.666 227.408 160.575 227.375 160.481 227.374H125.981C125.904 227.375 125.829 227.397 125.764 227.437C125.699 227.477 125.647 227.534 125.611 227.603C125.576 227.671 125.56 227.747 125.565 227.824C125.57 227.9 125.596 227.974 125.639 228.037L128.871 232.559C128.909 232.613 128.959 232.657 129.018 232.687C129.076 232.717 129.14 232.733 129.206 232.734Z" fill="#22408B"/>
<path opacity="0.2" d="M129.205 232.734H161.483C161.544 232.735 161.604 232.721 161.659 232.695C161.714 232.669 161.762 232.63 161.8 232.582C161.837 232.535 161.864 232.479 161.877 232.419C161.89 232.36 161.889 232.298 161.875 232.239C161.541 230.717 161.199 229.202 160.858 227.68C160.836 227.59 160.785 227.51 160.712 227.452C160.64 227.394 160.551 227.361 160.459 227.359H125.936C125.861 227.36 125.788 227.381 125.724 227.42C125.66 227.46 125.609 227.516 125.575 227.583C125.541 227.65 125.527 227.725 125.533 227.8C125.539 227.875 125.565 227.947 125.609 228.008L128.849 232.552C128.887 232.61 128.941 232.658 129.003 232.69C129.065 232.722 129.135 232.737 129.205 232.734Z" fill="black"/>
<path d="M114.852 177.387H54.037C53.7153 177.388 53.3978 177.46 53.1073 177.598L50.4707 178.865C55.4678 196.829 60.4674 214.776 65.4694 232.705L126.365 232.866L129.779 232.734C125.057 214.528 120.554 196.322 115.84 178.115C115.777 177.903 115.646 177.717 115.468 177.585C115.29 177.454 115.074 177.384 114.852 177.387Z" fill="#22408B"/>
<path opacity="0.2" d="M126.365 232.865L65.4694 232.705C60.4674 214.742 55.4678 196.795 50.4707 178.865H112.565L126.365 232.865Z" fill="black"/>
<path opacity="0.2" d="M52.9394 177.685L50.4844 178.866H112.578L115.048 177.678C115.08 177.663 115.106 177.637 115.121 177.605C115.136 177.573 115.14 177.537 115.131 177.502C115.123 177.468 115.102 177.438 115.074 177.416C115.045 177.395 115.01 177.385 114.975 177.387H54.254C53.799 177.386 53.3496 177.488 52.9394 177.685Z" fill="white"/>
<path d="M91.4363 203.669C91.5516 204.903 91.2996 206.143 90.7119 207.233C90.1243 208.322 89.2275 209.213 88.135 209.792C87.0425 210.371 85.8034 210.611 84.5744 210.484C83.3453 210.356 82.1816 209.866 81.2304 209.076C80.2792 208.285 79.5832 207.229 79.2306 206.042C78.8779 204.854 78.8843 203.589 79.2491 202.405C79.6138 201.222 80.3205 200.173 81.2797 199.392C82.2389 198.611 83.4076 198.133 84.6378 198.018C85.4544 197.941 86.2782 198.026 87.062 198.268C87.8459 198.511 88.5743 198.905 89.2058 199.43C89.8372 199.955 90.3592 200.6 90.742 201.327C91.1247 202.055 91.3606 202.85 91.4363 203.669Z" fill="#22408B"/>
<path opacity="0.4" d="M115.831 178.122L129.776 232.741L126.363 232.872L112.562 178.872L114.959 177.722C115.042 177.682 115.132 177.661 115.224 177.661C115.315 177.66 115.405 177.679 115.489 177.718C115.572 177.756 115.645 177.812 115.705 177.882C115.764 177.952 115.807 178.034 115.831 178.122Z" fill="black"/>
<defs>
<linearGradient id="paint0_linear_535_1710" x1="139.348" y1="27.5654" x2="139.348" y2="307" gradientUnits="userSpaceOnUse">
<stop stop-color="#D9D9D9"/>
<stop offset="0.725604" stop-color="#D9D9D9" stop-opacity="0"/>
</linearGradient>
</defs>
</svg>
