<svg width="121" height="40" viewBox="0 0 121 40" fill="none" xmlns="http://www.w3.org/2000/svg">
<path d="M0 31.5943V1.70741H6.39949V14.0387H19.3906V1.70741H25.7753V31.5943H19.3906V19.2484H6.39949V31.5943H0Z" fill="white"/>
<path d="M38.5294 32.0175C37.081 32.0175 35.7903 31.7694 34.6572 31.2733C33.5241 30.7674 32.6275 30.0231 31.9673 29.0405C31.317 28.0482 30.9919 26.8126 30.9919 25.3338C30.9919 24.0885 31.2234 23.0427 31.6865 22.1963C32.1496 21.3499 32.7802 20.6689 33.5783 20.1532C34.3764 19.6376 35.2828 19.2484 36.2977 18.9858C37.3224 18.7231 38.3964 18.5382 39.5196 18.4312C40.8399 18.295 41.904 18.1686 42.712 18.0518C43.5199 17.9253 44.1061 17.7405 44.4707 17.4973C44.8353 17.254 45.0175 16.8941 45.0175 16.4174V16.3298C45.0175 15.4056 44.722 14.6905 44.1308 14.1846C43.5495 13.6787 42.7218 13.4258 41.6478 13.4258C40.5148 13.4258 39.6132 13.6738 38.9432 14.17C38.2732 14.6565 37.8298 15.2694 37.6131 16.0088L31.79 15.5418C32.0856 14.1797 32.6669 13.0026 33.5339 12.0102C34.401 11.0081 35.5193 10.2396 36.8889 9.70449C38.2683 9.15967 39.8645 8.88727 41.6774 8.88727C42.9386 8.88727 44.1456 9.0332 45.2984 9.32506C46.461 9.61693 47.4906 10.0693 48.3873 10.6822C49.2937 11.2951 50.0081 12.0832 50.5303 13.0463C51.0525 13.9998 51.3136 15.1429 51.3136 16.4757V31.5943H45.3427V28.486H45.1653C44.8008 29.1864 44.3131 29.8042 43.7022 30.3393C43.0913 30.8646 42.3573 31.2781 41.5 31.5797C40.6428 31.8716 39.6526 32.0175 38.5294 32.0175ZM40.3325 27.7271C41.2586 27.7271 42.0764 27.5471 42.7859 27.1872C43.4953 26.8175 44.052 26.3213 44.4559 25.6987C44.8599 25.076 45.0619 24.3707 45.0619 23.5826V21.2039C44.8648 21.3304 44.5939 21.4472 44.249 21.5542C43.914 21.6515 43.5347 21.7439 43.111 21.8314C42.6873 21.9093 42.2636 21.9822 41.84 22.0503C41.4163 22.1087 41.032 22.1622 40.6872 22.2109C39.9482 22.3179 39.3028 22.4881 38.7511 22.7216C38.1993 22.9551 37.7707 23.2713 37.4653 23.6702C37.1598 24.0593 37.0071 24.5458 37.0071 25.1295C37.0071 25.9759 37.3175 26.6229 37.9382 27.0704C38.5688 27.5082 39.3669 27.7271 40.3325 27.7271Z" fill="white"/>
<path d="M74.6571 31.5943V36.3079H54.7788V31.5943H74.6571Z" fill="white"/>
<path d="M82.3012 9.17913H88.5972V32.7034C88.5972 34.4351 88.2524 35.8361 87.5627 36.9062C86.873 37.9764 85.8828 38.7596 84.592 39.2557C83.3111 39.7519 81.779 40 79.9956 40C79.7789 40 79.5719 39.9951 79.3749 39.9854C79.168 39.9854 78.9512 39.9805 78.7246 39.9708V35.1113C78.8921 35.121 79.0399 35.1259 79.168 35.1259C79.2862 35.1356 79.4143 35.1405 79.5522 35.1405C80.5671 35.1405 81.2765 34.9264 81.6805 34.4984C82.0943 34.08 82.3012 33.4476 82.3012 32.6012V9.17913ZM85.4344 6.28968C84.5083 6.28968 83.7102 5.98322 83.0402 5.3703C82.3702 4.74766 82.0352 4.00341 82.0352 3.13754C82.0352 2.28141 82.3702 1.54688 83.0402 0.933967C83.7102 0.311322 84.5083 0 85.4344 0C86.3803 0 87.1833 0.311322 87.8435 0.933967C88.5135 1.54688 88.8485 2.28141 88.8485 3.13754C88.8485 4.00341 88.5135 4.74766 87.8435 5.3703C87.1833 5.98322 86.3803 6.28968 85.4344 6.28968Z" fill="white"/>
<path d="M94.7634 31.5943V9.17913H101.059V31.5943H94.7634ZM97.9262 6.28968C96.9902 6.28968 96.1871 5.98322 95.5171 5.3703C94.857 4.74766 94.5269 4.00341 94.5269 3.13754C94.5269 2.28141 94.857 1.54688 95.5171 0.933967C96.1871 0.311322 96.9902 0 97.9262 0C98.8622 0 99.6603 0.311322 100.32 0.933967C100.99 1.54688 101.325 2.28141 101.325 3.13754C101.325 4.00341 100.99 4.74766 100.32 5.3703C99.6603 5.98322 98.8622 6.28968 97.9262 6.28968Z" fill="white"/>
<path d="M107.226 31.5943V9.17913H113.329V13.0901H113.566C113.98 11.6989 114.674 10.6482 115.65 9.93798C116.625 9.21805 117.749 8.85808 119.02 8.85808C119.335 8.85808 119.675 8.87754 120.039 8.91645C120.404 8.95537 120.724 9.00888 121 9.07698V14.5932C120.704 14.5057 120.296 14.4278 119.773 14.3597C119.251 14.2916 118.773 14.2576 118.34 14.2576C117.414 14.2576 116.586 14.457 115.857 14.8559C115.137 15.245 114.566 15.7899 114.142 16.4903C113.729 17.1908 113.522 17.9983 113.522 18.9128V31.5943H107.226Z" fill="white"/>
<path d="M55.347 17.0833C55.588 16.8021 56.0142 16.767 56.299 17.0049L63.3554 22.9006C63.7381 22.6375 64.2032 22.4832 64.7048 22.4832C66.0104 22.4832 67.0688 23.5283 67.0688 24.8175C67.0688 26.1067 66.0104 27.1518 64.7048 27.1518C63.3991 27.1518 62.3407 26.1067 62.3407 24.8175C62.3407 24.5084 62.4016 24.2133 62.5121 23.9433L55.4264 18.0232C55.1416 17.7853 55.1061 17.3644 55.347 17.0833Z" fill="white"/>
<path d="M74.1705 20.2424C74.6959 19.9142 74.8523 19.2275 74.5199 18.7087C74.1875 18.1899 73.4921 18.0355 72.9667 18.3637L67.9923 21.4713C68.6158 22.0937 68.8999 22.4903 69.196 23.35L74.1705 20.2424Z" fill="white"/>
</svg>
