<svg width="285" height="264" viewBox="0 0 285 264" fill="none" xmlns="http://www.w3.org/2000/svg">
<path d="M140.827 263.47C218.604 263.47 281.655 259.783 281.655 255.236C281.655 250.689 218.604 247.002 140.827 247.002C63.0505 247.002 0 250.689 0 255.236C0 259.783 63.0505 263.47 140.827 263.47Z" fill="#F5F5F5"/>
<path d="M119.525 130.683C118.861 130.561 118.263 130.205 117.84 129.679L114.099 125.177C113.741 124.75 113.513 124.228 113.442 123.675C113.371 123.122 113.461 122.56 113.7 122.056L115.763 117.568C117.779 113.206 120.71 109.328 124.355 106.2L125.597 105.152C126.571 104.311 127.839 103.891 129.122 103.985C130.405 104.079 131.598 104.679 132.439 105.654C132.475 105.694 132.509 105.735 132.541 105.778L136.347 110.433C137.068 111.332 137.446 112.458 137.414 113.611C137.382 114.764 136.942 115.867 136.172 116.725L131.524 122.02C131.524 122.02 125.575 131.766 119.525 130.683Z" fill="#EBB376"/>
<path d="M160.549 150.983C158.282 146.692 154.738 144.212 149.893 144.03C146.472 143.899 143.618 145.441 141.076 147.667C135.992 152.14 130.755 156.497 124.901 159.988C123.163 161.031 121.357 161.957 119.497 162.759C119.126 162.912 118.77 163.13 118.444 162.999C117.122 162.461 117.964 157.537 118.356 155.304C118.988 151.725 120.666 144.168 125.874 129.977L112.713 122.98C107.636 130.534 103.63 138.756 100.808 147.412C97.6851 157.035 97.3801 163.218 98.0628 168.127C99.0361 175.095 101.92 178.703 102.813 179.765C105.849 183.344 109.822 185.22 114.376 185.897C118.734 186.551 122.998 185.758 127.167 184.507C135.563 181.991 142.87 177.481 149.683 172.142C152.468 169.943 155.135 167.597 157.672 165.116C159.763 163.183 161.146 160.604 161.602 157.791C161.633 157.632 161.68 157.476 161.74 157.326V155.02C161.505 153.632 161.105 152.276 160.549 150.983Z" fill="#22408B"/>
<path opacity="0.2" d="M142.673 150.693C140.017 162.293 135.609 173.418 129.599 183.686C130.834 183.235 132.504 182.58 134.451 181.693C137.755 180.152 140.929 178.347 143.944 176.296C146.736 174.458 149.42 172.461 151.984 170.317L142.673 150.693Z" fill="black"/>
<path opacity="0.2" d="M121.422 109.015C121.708 111.111 122.262 113.162 123.071 115.117C124.574 118.695 126.881 121.878 129.811 124.42C130.363 123.642 130.944 122.849 131.576 122.049C132.84 120.42 134.118 118.943 135.36 117.612L126.361 104.578C125.212 105.424 124.115 106.34 123.078 107.32C122.475 107.894 121.945 108.462 121.422 109.015Z" fill="black"/>
<path d="M248.579 232.513C239.137 208.94 233.224 192.589 226.477 148.954C224.814 138.226 214.856 131.207 204.636 132.116C201.731 132.378 192.027 131.17 175.169 135.229C162.858 138.197 141.228 147.841 141.228 147.841C141.228 147.841 150.271 192.712 176.934 232.513H248.579Z" fill="#FF5050"/>
<path opacity="0.7" d="M248.579 232.513C239.137 208.94 233.224 192.589 226.477 148.954C224.814 138.226 214.856 131.207 204.636 132.116C201.731 132.378 192.027 131.17 175.169 135.229C162.858 138.197 141.228 147.841 141.228 147.841C141.228 147.841 150.271 192.712 176.934 232.513H248.579Z" fill="#E8505B"/>
<path d="M201.723 194.502C204.439 201.084 208.71 209.18 213.017 216.773C216.329 222.592 219.663 228.149 222.328 232.484H250.19L239.513 206.91L237.959 203.201L235.976 192.945L227.035 146.932C225.226 137.622 216.314 130.348 207.424 130.93L195.367 131.701L195.258 132.225C194.408 136.356 189.397 164.28 201.635 194.232L201.723 194.502Z" fill="#22408B"/>
<path d="M166.788 220.818C169.882 227.575 171.974 231.946 171.974 231.946C171.974 231.946 171.974 232.135 171.887 232.484H182.629C182.577 228.528 182.288 224.579 181.765 220.658C180.737 212.884 179.139 205.197 176.985 197.658C176.259 195.018 175.431 192.458 174.589 190.057C167.565 170.041 164.05 141.135 163.759 138.742C163.759 138.633 163.759 138.582 163.759 138.582C163.759 138.582 141.831 144.976 141.243 147.805C139.681 155.348 148.731 179.183 157.411 199.579C160.803 207.594 164.158 215.057 166.788 220.818Z" fill="#22408B"/>
<path d="M163.933 135.578C167.144 139.077 168.408 141.746 168.778 143.681C169.323 146.518 167.957 147.791 167.957 147.791C169.657 154.744 179.026 153.34 179.026 153.34C189.551 141.179 188.585 132.865 188.585 132.865C181.881 132.705 177.305 128.436 174.356 124.057C172.402 121.131 170.894 117.929 169.882 114.558L157.97 130.036C160.089 131.737 162.081 133.589 163.933 135.578Z" fill="#EBB376"/>
<path opacity="0.2" d="M157.992 130.036C160.103 131.738 162.088 133.59 163.933 135.578C167.143 139.077 168.407 141.746 168.778 143.681C173.913 137.593 174.842 130.232 174.356 124.042C172.403 121.121 170.895 117.924 169.882 114.558L157.992 130.036Z" fill="black"/>
<path d="M161.674 73.898C161.674 72.2323 161.95 67.4463 165.436 63.6131C169.947 58.6525 177.675 57.6997 182.912 59.9763C189.55 62.8348 188.061 69.0683 196.879 82.5244C203.815 93.0857 207.004 92.7075 209.321 100.112C209.96 102.149 213.795 114.47 206.474 122.536C202.472 126.944 196.995 127.97 194.518 128.268C195.724 126.086 197.01 122.886 196.298 119.438C195.404 115.117 191.889 112.957 189.289 110.71C177.421 100.483 182.752 86.9468 170.927 78.1385C168.165 76.1051 165.016 74.6618 161.674 73.898Z" fill="#263238"/>
<path d="M128.889 116.136C127.857 114.681 119.664 102.65 124.19 89.3398C127.291 80.1896 134.714 75.3963 137.641 73.5124C140.568 71.6285 146.139 67.9699 152.952 68.0136C170.253 68.1227 183.4 89.2088 182.637 101.916C182.223 108.913 180.494 117.569 174.284 122.376C171.793 124.304 170.827 116.812 170.827 116.812C170.827 116.812 146.698 128.115 128.889 116.136Z" fill="#263238"/>
<path d="M169.642 89.4634C174.464 105.56 176.832 112.252 172.104 123.613C164.993 140.706 144.83 144.044 135.461 129.948C127.028 117.256 120.571 93.0638 133.165 80.4151C145.571 67.9408 164.797 73.3742 169.642 89.4634Z" fill="#EBB376"/>
<path d="M151.281 90.3656C163.876 96.9627 153.003 116.187 168.946 108.04C184.888 99.8939 167.769 79.9425 155.727 79.1497C143.684 78.3568 151.281 90.3656 151.281 90.3656Z" fill="#263238"/>
<path d="M147.584 103.625C148.085 104.942 147.831 106.316 147.017 106.695C146.204 107.073 145.144 106.309 144.642 104.985C144.141 103.661 144.388 102.294 145.202 101.916C146.015 101.538 147.083 102.316 147.584 103.625Z" fill="#263238"/>
<path d="M132.374 110.942C132.883 112.266 132.629 113.641 131.815 114.012C131.002 114.383 129.934 113.626 129.433 112.31C128.932 110.993 129.186 109.619 129.999 109.24C130.813 108.862 131.873 109.626 132.374 110.942Z" fill="#263238"/>
<path d="M130.384 109.146L127.028 109.59C127.028 109.59 129.527 111.379 130.384 109.146Z" fill="#263238"/>
<path d="M137.366 111.117C137.366 111.117 137.221 117.772 135.826 121.547C138.063 122.478 140.627 120.522 140.627 120.522L137.366 111.117Z" fill="#D58745"/>
<path d="M151.645 120.98C152.383 120.738 153.141 120.563 153.911 120.457C153.963 120.448 154.016 120.451 154.067 120.465C154.118 120.479 154.165 120.504 154.206 120.538C154.246 120.571 154.279 120.613 154.302 120.661C154.325 120.708 154.338 120.76 154.339 120.813C154.347 120.924 154.313 121.033 154.244 121.12C154.176 121.208 154.078 121.267 153.969 121.286C152.231 121.521 150.569 122.146 149.105 123.113C147.642 124.08 146.414 125.365 145.515 126.872C145.469 126.971 145.386 127.048 145.284 127.086C145.182 127.124 145.069 127.12 144.97 127.076C144.876 127.024 144.806 126.936 144.776 126.832C144.746 126.729 144.758 126.617 144.81 126.523C146.327 123.894 148.762 121.92 151.645 120.98Z" fill="#263238"/>
<path d="M178.367 102.876C178.435 104.481 178.169 106.082 177.583 107.578C176.998 109.073 176.107 110.43 174.967 111.56C172.026 114.23 168.525 111.088 167.646 106.585C166.854 102.541 167.428 96.2786 171.198 95.4058C174.967 94.5329 178.309 98.548 178.367 102.876Z" fill="#EBB376"/>
<path d="M124.319 105.589C124.366 105.493 124.435 105.408 124.519 105.342C124.603 105.275 124.701 105.228 124.805 105.204C125.78 104.997 126.689 104.551 127.45 103.906C128.21 103.262 128.799 102.438 129.163 101.509C129.189 101.405 129.237 101.309 129.304 101.227C129.371 101.144 129.455 101.077 129.551 101.031C129.646 100.984 129.751 100.959 129.857 100.958C129.963 100.956 130.069 100.978 130.166 101.021C130.369 101.107 130.534 101.265 130.628 101.466C130.722 101.666 130.738 101.894 130.674 102.105C130.234 103.291 129.504 104.347 128.549 105.176C127.595 106.005 126.447 106.58 125.212 106.848C124.998 106.885 124.778 106.838 124.597 106.718C124.416 106.598 124.288 106.412 124.239 106.2C124.19 105.994 124.219 105.776 124.319 105.589Z" fill="#263238"/>
<path d="M146.761 95.9511C146.953 96.0211 147.112 96.1615 147.204 96.3439C147.246 96.4427 147.268 96.5488 147.269 96.6561C147.269 96.7635 147.249 96.8698 147.208 96.9692C147.168 97.0685 147.108 97.1589 147.033 97.2351C146.957 97.3113 146.867 97.3718 146.769 97.4131C145.586 98.013 144.281 98.331 142.956 98.3424C141.63 98.3537 140.32 98.0581 139.128 97.4786C139.034 97.4293 138.953 97.3603 138.889 97.2764C138.825 97.1924 138.78 97.0955 138.757 96.9923C138.734 96.8892 138.734 96.7823 138.757 96.6791C138.779 96.5759 138.824 96.4789 138.888 96.3948C139.012 96.2121 139.199 96.0814 139.414 96.0278C139.628 95.9742 139.854 96.0012 140.05 96.1039C141 96.5493 142.04 96.7704 143.089 96.7503C144.138 96.7301 145.168 96.4691 146.1 95.9875C146.309 95.8965 146.544 95.8836 146.761 95.9511Z" fill="#263238"/>
<path d="M145.586 101.829L142.281 102.316C142.281 102.316 144.729 104.062 145.586 101.829Z" fill="#263238"/>
<path d="M138.192 85.7465C147.308 94.613 157.041 98.2644 162.052 97.7552C164.415 97.5345 166.73 96.9507 168.916 96.0241C170.906 95.0786 173.826 93.2165 173.826 93.2165C173.28 90.4176 172.263 87.7318 170.819 85.2738C167.676 80.1337 162.904 76.1955 157.266 74.087C155.014 73.2287 148.02 70.9593 140.945 73.2069C130.849 76.4072 123.579 87.8559 123.303 101.654C123.917 101.161 124.56 100.704 125.228 100.286C127.159 99.075 129.277 98.1904 131.496 97.668C131.675 96.0864 132.071 94.5372 132.672 93.0638C133.856 90.1912 135.756 87.6714 138.192 85.7465Z" fill="#263238"/>
<path d="M159.06 98.5484C159.008 98.9011 158.834 99.2243 158.569 99.4621C158.303 99.6999 157.963 99.8372 157.608 99.8503C157.083 99.8788 156.559 99.7729 156.086 99.5426C155.614 99.3122 155.207 98.9651 154.906 98.5338C154.734 98.292 154.638 98.005 154.629 97.7087C154.62 97.4124 154.699 97.12 154.855 96.8682L155.523 95.7844L155.588 95.6826C157.099 93.5829 158.16 92.6519 158.77 92.8895C159.481 93.1659 159.583 95.0425 159.06 98.5484Z" fill="#FF5050"/>
<path opacity="0.7" d="M158.581 98.0464C158.542 98.3066 158.415 98.5453 158.22 98.7218C158.025 98.8982 157.775 99.0015 157.513 99.0138C157.119 99.0334 156.726 98.9507 156.373 98.7738C156.033 98.6062 155.741 98.3561 155.523 98.0464C155.397 97.8678 155.326 97.6559 155.32 97.4373C155.313 97.2187 155.371 97.003 155.487 96.8172L155.973 96.0171C155.993 95.9946 156.01 95.9702 156.024 95.9444C157.133 94.3975 157.915 93.7114 158.37 93.8859C158.9 94.0823 158.988 95.4716 158.581 98.0464Z" fill="white"/>
<path opacity="0.2" d="M157.89 116.798C156.587 111.221 156.61 105.417 157.955 99.8505C158.304 101.618 158.645 103.385 158.994 105.153L174.472 108.79C175.547 105.749 176.619 102.707 177.689 99.6614C177.866 100.135 178.007 100.621 178.111 101.116C178.162 101.349 179.237 106.6 175.881 110.637C175.511 111.049 175.108 111.428 174.675 111.772C174.675 112.228 174.653 112.693 174.61 113.168C174.515 114.71 174.356 116.18 174.145 117.533L157.89 116.798Z" fill="black"/>
<path d="M161.486 116.718C162.059 117.165 162.771 117.397 163.498 117.373L169.817 117.198C170.418 117.187 171.002 117.002 171.501 116.667C171.999 116.332 172.391 115.859 172.628 115.307L174.807 110.426C176.898 105.676 177.944 100.531 177.872 95.3408V93.5806C177.86 92.189 177.298 90.859 176.308 89.8825C175.318 88.906 173.981 88.363 172.592 88.3727H172.417L165.938 88.5982C164.695 88.6499 163.511 89.1431 162.598 89.9894C161.685 90.8357 161.103 91.9798 160.956 93.2169L159.968 100.774C159.968 100.774 156.249 112.579 161.486 116.718Z" fill="#EBB376"/>
<path opacity="0.2" d="M217.55 134.007C218.329 134.407 219.06 134.895 219.729 135.462C224.595 139.535 224.377 146.372 224.363 146.794C224.087 152.78 219.438 156.679 215.509 159.974C209.561 164.852 202.391 168.005 194.779 169.088C202.367 157.387 209.957 145.693 217.55 134.007Z" fill="black"/>
<path opacity="0.2" d="M169.417 172.142C166.201 171.52 163.2 170.08 160.701 167.96C156.692 164.498 155.399 160.236 154.302 156.635C152.887 151.902 152.482 146.923 153.111 142.022L158.028 140.371L169.417 172.142Z" fill="black"/>
<path d="M217.776 134.181C214.144 131.272 209.873 131.614 208.334 131.745C202.044 132.254 197.272 136.458 192.456 140.742C190.096 142.844 187.582 144.786 185.265 146.947C183.121 148.833 180.571 150.2 177.813 150.94C177.655 150.969 177.492 150.969 177.334 150.94C177.214 150.923 177.098 150.884 176.993 150.823C176.862 150.755 176.747 150.66 176.654 150.545C176.562 150.43 176.494 150.297 176.455 150.154C175.925 148.285 175.467 146.372 175.104 144.459C173.942 138.357 173.928 133.425 173.906 127.73C173.906 123.809 174.015 119.816 174.276 115.867V115.517L158.384 113.954L158.319 114.274C156.424 123.863 155.348 133.596 155.101 143.368C155.007 148.154 155.101 153.791 157.752 160.097C158.614 162.497 159.893 164.726 161.529 166.68C163.483 168.85 165.877 170.576 168.552 171.743C171.226 172.909 174.119 173.49 177.036 173.444C178.076 173.445 179.115 173.375 180.145 173.233C190.183 171.946 198.841 167.276 202.007 165.458C212.699 159.326 217.413 153.333 218.836 151.42C220.776 148.816 222.09 146.408 222.134 143.419C222.177 137.847 217.95 134.32 217.776 134.181Z" fill="#22408B"/>
<path d="M255.752 30.5033C255.752 26.7429 253.798 23.3534 250.668 20.9095C250.772 20.4168 250.826 19.9147 250.827 19.4111C250.827 14.3996 245.743 10.3336 239.431 10.2173C237.521 5.38033 231.79 1.86719 225.021 1.86719C219.624 1.86719 214.889 4.10018 212.223 7.46058C211.547 7.36382 210.865 7.3152 210.182 7.31511C203.74 7.31511 198.51 11.432 198.51 16.5089C198.512 17.3725 198.664 18.2291 198.96 19.0401C194.857 21.2222 192.147 24.859 192.147 29.0632C192.147 33.0855 194.661 36.6495 198.517 38.8389C198.514 38.8824 198.514 38.9262 198.517 38.9698C198.517 43.894 203.442 47.9163 209.623 48.1491C213.037 51.4876 218.259 53.6188 224.149 53.6188C227.998 53.65 231.789 52.6747 235.146 50.7894C235.662 50.8403 236.192 50.8767 236.729 50.8767C243.179 50.8767 248.401 46.7598 248.401 41.6828V41.5883C252.817 39.1662 255.752 35.1002 255.752 30.5033Z" fill="#FF5050"/>
<path d="M178.537 41.9815C178.537 43.0944 177.252 43.9963 175.632 43.9963C174.012 43.9963 172.727 43.0944 172.727 41.9815C172.727 40.8687 174.012 39.9667 175.632 39.9667C177.252 39.9667 178.537 40.8687 178.537 41.9815Z" fill="#FF5050"/>
<path d="M188.379 34.6202C188.379 36.315 186.41 37.6897 183.977 37.6897C181.544 37.6897 179.576 36.315 179.576 34.6202C179.576 32.9255 181.551 31.5508 183.977 31.5508C186.403 31.5508 188.379 32.9255 188.379 34.6202Z" fill="#FF5050"/>
<path opacity="0.6" d="M255.752 30.5033C255.752 26.7429 253.798 23.3534 250.668 20.9095C250.772 20.4168 250.826 19.9147 250.827 19.4111C250.827 14.3996 245.743 10.3336 239.431 10.2173C237.521 5.38033 231.79 1.86719 225.021 1.86719C219.624 1.86719 214.889 4.10018 212.223 7.46058C211.547 7.36382 210.865 7.3152 210.182 7.31511C203.74 7.31511 198.51 11.432 198.51 16.5089C198.512 17.3725 198.664 18.2291 198.96 19.0401C194.857 21.2222 192.147 24.859 192.147 29.0632C192.147 33.0855 194.661 36.6495 198.517 38.8389C198.514 38.8824 198.514 38.9262 198.517 38.9698C198.517 43.894 203.442 47.9163 209.623 48.1491C213.037 51.4876 218.259 53.6188 224.149 53.6188C227.998 53.65 231.789 52.6747 235.146 50.7894C235.662 50.8403 236.192 50.8767 236.729 50.8767C243.179 50.8767 248.401 46.7598 248.401 41.6828V41.5883C252.817 39.1662 255.752 35.1002 255.752 30.5033Z" fill="white"/>
<path opacity="0.6" d="M178.537 41.9815C178.537 43.0944 177.252 43.9963 175.632 43.9963C174.012 43.9963 172.727 43.0944 172.727 41.9815C172.727 40.8687 174.012 39.9667 175.632 39.9667C177.252 39.9667 178.537 40.8687 178.537 41.9815Z" fill="white"/>
<path opacity="0.6" d="M188.379 34.6202C188.379 36.315 186.41 37.6897 183.977 37.6897C181.544 37.6897 179.576 36.315 179.576 34.6202C179.576 32.9255 181.551 31.5508 183.977 31.5508C186.403 31.5508 188.379 32.9255 188.379 34.6202Z" fill="white"/>
<path d="M216.168 17.8477H204.329V23.5356H216.168V17.8477Z" fill="#FF5050"/>
<path opacity="0.8" d="M216.168 17.8477H204.329V23.5356H216.168V17.8477Z" fill="white"/>
<path d="M229.424 17.8477H217.584V23.5356H229.424V17.8477Z" fill="#FF5050"/>
<path opacity="0.8" d="M229.424 17.8477H217.584V23.5356H229.424V17.8477Z" fill="white"/>
<path d="M242.686 17.8477H230.847V23.5356H242.686V17.8477Z" fill="#FF5050"/>
<path opacity="0.8" d="M242.686 17.8477H230.847V23.5356H242.686V17.8477Z" fill="white"/>
<path d="M209.951 24.6411H198.112V30.3291H209.951V24.6411Z" fill="#FF5050"/>
<path opacity="0.8" d="M209.951 24.6411H198.112V30.3291H209.951V24.6411Z" fill="white"/>
<path d="M223.199 24.6411H211.36V30.3291H223.199V24.6411Z" fill="#FF5050"/>
<path opacity="0.8" d="M223.199 24.6411H211.36V30.3291H223.199V24.6411Z" fill="white"/>
<path d="M236.468 24.6411H224.629V30.3291H236.468V24.6411Z" fill="#FF5050"/>
<path opacity="0.8" d="M236.468 24.6411H224.629V30.3291H236.468V24.6411Z" fill="white"/>
<path d="M249.79 24.6411H237.951V30.3291H249.79V24.6411Z" fill="#FF5050"/>
<path opacity="0.8" d="M249.79 24.6411H237.951V30.3291H249.79V24.6411Z" fill="white"/>
<path d="M216.168 31.7766H204.329V37.4646H216.168V31.7766Z" fill="#FF5050"/>
<path opacity="0.8" d="M216.168 31.7766H204.329V37.4646H216.168V31.7766Z" fill="white"/>
<path d="M229.424 31.7766H217.584V37.4646H229.424V31.7766Z" fill="#FF5050"/>
<path opacity="0.8" d="M229.424 31.7766H217.584V37.4646H229.424V31.7766Z" fill="white"/>
<path d="M242.686 31.7766H230.847V37.4646H242.686V31.7766Z" fill="#FF5050"/>
<path opacity="0.8" d="M242.686 31.7766H230.847V37.4646H242.686V31.7766Z" fill="white"/>
<path d="M222.488 11.054H210.649V16.7419H222.488V11.054Z" fill="#FF5050"/>
<path opacity="0.8" d="M222.488 11.054H210.649V16.7419H222.488V11.054Z" fill="white"/>
<path d="M235.757 11.054H223.917V16.7419H235.757V11.054Z" fill="#FF5050"/>
<path opacity="0.8" d="M235.757 11.054H223.917V16.7419H235.757V11.054Z" fill="white"/>
<path d="M223.199 38.5698H211.36V44.2578H223.199V38.5698Z" fill="#FF5050"/>
<path opacity="0.8" d="M223.199 38.5698H211.36V44.2578H223.199V38.5698Z" fill="white"/>
<path d="M236.468 38.5698H224.629V44.2578H236.468V38.5698Z" fill="#FF5050"/>
<path opacity="0.8" d="M236.468 38.5698H224.629V44.2578H236.468V38.5698Z" fill="white"/>
<path d="M227.579 22.4515C227.521 20.1458 225.545 18.611 222.444 18.662C219.466 18.7056 217.323 19.8839 215.972 21.9205L212.006 19.3966C214.185 16.2399 217.744 14.3051 222.778 14.2178C228.69 14.1378 232.714 16.8363 232.845 21.5569C233.033 28.2631 226.17 28.9759 226.308 33.8274L221.223 33.9001C221.006 27.8121 227.695 26.5611 227.579 22.4515ZM220.722 40.5264C220.703 40.1053 220.771 39.6848 220.921 39.2909C221.071 38.8971 221.3 38.5383 221.594 38.2369C221.888 37.9354 222.241 37.6977 222.631 37.5385C223.021 37.3794 223.439 37.3021 223.86 37.3115C224.281 37.2959 224.7 37.3648 225.094 37.5142C225.487 37.6636 225.847 37.8904 226.151 38.1812C226.456 38.472 226.7 38.821 226.867 39.2076C227.035 39.5941 227.124 40.0104 227.128 40.4318C227.149 40.8514 227.084 41.2708 226.938 41.6646C226.792 42.0583 226.567 42.4182 226.278 42.7223C225.989 43.0264 225.64 43.2684 225.255 43.4335C224.869 43.5987 224.454 43.6836 224.034 43.6831C223.609 43.6987 223.184 43.6288 222.786 43.4777C222.387 43.3266 222.023 43.0972 221.715 42.8031C221.406 42.509 221.159 42.1561 220.989 41.7651C220.818 41.3741 220.728 40.953 220.722 40.5264Z" fill="#FF5050"/>
<path d="M272.161 238.062H10.5605V254.995H272.161V238.062Z" fill="#263238"/>
<path opacity="0.3" d="M272.161 238.062H10.5605V254.995H272.161V238.062Z" fill="white"/>
<path d="M273.134 232.418H9.57944C8.09121 232.418 6.88477 233.626 6.88477 235.117V241.008C6.88477 242.499 8.09121 243.707 9.57944 243.707H273.134C274.622 243.707 275.829 242.499 275.829 241.008V235.117C275.829 233.626 274.622 232.418 273.134 232.418Z" fill="#263238"/>
<path opacity="0.4" d="M273.134 232.418H9.57944C8.09121 232.418 6.88477 233.626 6.88477 235.117V241.008C6.88477 242.499 8.09121 243.707 9.57944 243.707H273.134C274.622 243.707 275.829 242.499 275.829 241.008V235.117C275.829 233.626 274.622 232.418 273.134 232.418Z" fill="white"/>
<path d="M75.3628 219.995H23.9316V230.913H75.3628V219.995Z" fill="#263238"/>
<path opacity="0.8" d="M75.3628 219.995H23.9316V230.913H75.3628V219.995Z" fill="white"/>
<path opacity="0.5" d="M74.6364 222.141H23.9316V222.637H74.6364V222.141Z" fill="white"/>
<path opacity="0.5" d="M74.6364 224.956H23.9316V225.452H74.6364V224.956Z" fill="white"/>
<path opacity="0.5" d="M74.6364 227.901H23.9316V228.397H74.6364V227.901Z" fill="white"/>
<path d="M74.9278 218.489H22.7413C22.6825 218.488 22.6242 218.499 22.5696 218.521C22.515 218.543 22.4653 218.575 22.4233 218.617C22.3814 218.658 22.3481 218.707 22.3254 218.762C22.3027 218.816 22.291 218.874 22.291 218.933V220.308C22.291 220.427 22.3385 220.542 22.4229 220.627C22.5074 220.711 22.6219 220.759 22.7413 220.759H72.6326C72.75 220.759 72.8661 220.782 72.9745 220.827C73.0829 220.872 73.1814 220.938 73.2644 221.021C73.3473 221.104 73.4131 221.202 73.458 221.311C73.5029 221.42 73.526 221.536 73.526 221.653V229.407C73.526 229.644 73.4319 229.872 73.2644 230.04C73.0968 230.207 72.8696 230.302 72.6326 230.302H22.6832C22.6317 230.302 22.5807 230.312 22.5331 230.332C22.4856 230.351 22.4423 230.38 22.4059 230.417C22.3695 230.453 22.3406 230.496 22.3209 230.544C22.3012 230.592 22.291 230.643 22.291 230.694V232.025C22.291 232.077 22.3012 232.128 22.3209 232.176C22.3406 232.223 22.3695 232.267 22.4059 232.303C22.4423 232.34 22.4856 232.369 22.5331 232.388C22.5807 232.408 22.6317 232.418 22.6832 232.418H74.9787C75.3639 232.418 75.7334 232.265 76.0059 231.992C76.2783 231.719 76.4313 231.349 76.4313 230.964V220.053C76.4361 219.851 76.401 219.651 76.3278 219.462C76.2547 219.274 76.1451 219.103 76.0053 218.957C75.8655 218.812 75.6983 218.696 75.5133 218.615C75.3284 218.535 75.1294 218.492 74.9278 218.489Z" fill="#FF5050"/>
<path d="M75.3628 206.022H23.9316V216.94H75.3628V206.022Z" fill="#263238"/>
<path opacity="0.9" d="M75.3628 206.022H23.9316V216.94H75.3628V206.022Z" fill="white"/>
<path opacity="0.7" d="M74.6364 207.717H23.9316V208.213H74.6364V207.717Z" fill="white"/>
<path opacity="0.7" d="M74.6364 209.732H23.9316V210.228H74.6364V209.732Z" fill="white"/>
<path opacity="0.7" d="M74.6364 211.958H23.9316V212.453H74.6364V211.958Z" fill="white"/>
<path opacity="0.7" d="M74.6364 213.972H23.9316V214.468H74.6364V213.972Z" fill="white"/>
<path d="M74.9278 204.517H22.7413C22.6219 204.517 22.5074 204.564 22.4229 204.649C22.3385 204.734 22.291 204.848 22.291 204.968V206.328C22.291 206.387 22.3027 206.445 22.3254 206.5C22.3481 206.554 22.3814 206.603 22.4233 206.644C22.4653 206.686 22.515 206.718 22.5696 206.74C22.6242 206.762 22.6825 206.773 22.7413 206.772H72.6326C72.8696 206.772 73.0968 206.866 73.2644 207.034C73.4319 207.202 73.526 207.429 73.526 207.666V215.427C73.526 215.665 73.4319 215.892 73.2644 216.06C73.0968 216.228 72.8696 216.322 72.6326 216.322H22.6832C22.6317 216.322 22.5807 216.332 22.5331 216.352C22.4856 216.372 22.4423 216.401 22.4059 216.437C22.3695 216.474 22.3406 216.517 22.3209 216.564C22.3012 216.612 22.291 216.663 22.291 216.715V218.039C22.291 218.09 22.3012 218.141 22.3209 218.189C22.3406 218.237 22.3695 218.28 22.4059 218.316C22.4423 218.353 22.4856 218.382 22.5331 218.401C22.5807 218.421 22.6317 218.431 22.6832 218.431H74.9787C75.3639 218.431 75.7334 218.278 76.0058 218.005C76.2783 217.732 76.4313 217.362 76.4313 216.977V206.066C76.4352 205.662 76.2795 205.272 75.9979 204.982C75.7163 204.692 75.3318 204.525 74.9278 204.517Z" fill="#FF5050"/>
<path opacity="0.3" d="M74.9278 204.517H22.7413C22.6219 204.517 22.5074 204.564 22.4229 204.649C22.3385 204.734 22.291 204.848 22.291 204.968V206.328C22.291 206.387 22.3027 206.445 22.3254 206.5C22.3481 206.554 22.3814 206.603 22.4233 206.644C22.4653 206.686 22.515 206.718 22.5696 206.74C22.6242 206.762 22.6825 206.773 22.7413 206.772H72.6326C72.8696 206.772 73.0968 206.866 73.2644 207.034C73.4319 207.202 73.526 207.429 73.526 207.666V215.427C73.526 215.665 73.4319 215.892 73.2644 216.06C73.0968 216.228 72.8696 216.322 72.6326 216.322H22.6832C22.6317 216.322 22.5807 216.332 22.5331 216.352C22.4856 216.372 22.4423 216.401 22.4059 216.437C22.3695 216.474 22.3406 216.517 22.3209 216.564C22.3012 216.612 22.291 216.663 22.291 216.715V218.039C22.291 218.09 22.3012 218.141 22.3209 218.189C22.3406 218.237 22.3695 218.28 22.4059 218.316C22.4423 218.353 22.4856 218.382 22.5331 218.401C22.5807 218.421 22.6317 218.431 22.6832 218.431H74.9787C75.3639 218.431 75.7334 218.278 76.0058 218.005C76.2783 217.732 76.4313 217.362 76.4313 216.977V206.066C76.4352 205.662 76.2795 205.272 75.9979 204.982C75.7163 204.692 75.3318 204.525 74.9278 204.517Z" fill="white"/>
<path d="M75.3628 196.145H23.9316V203.011H75.3628V196.145Z" fill="#263238"/>
<path opacity="0.8" d="M75.3628 196.145H23.9316V203.011H75.3628V196.145Z" fill="white"/>
<path opacity="0.5" d="M74.6364 197.6H23.9316V198.096H74.6364V197.6Z" fill="white"/>
<path opacity="0.5" d="M74.6364 200.444H23.9316V200.939H74.6364V200.444Z" fill="white"/>
<path d="M22.2911 194.276V196.007C22.2901 196.042 22.2964 196.078 22.3095 196.111C22.3227 196.144 22.3424 196.174 22.3676 196.199C22.3928 196.224 22.4228 196.244 22.4558 196.257C22.4889 196.27 22.5243 196.277 22.5599 196.276H73.2792C73.3504 196.276 73.4188 196.304 73.4692 196.355C73.5196 196.405 73.5479 196.473 73.5479 196.545V201.687C73.5479 201.88 73.4714 202.065 73.3352 202.202C73.199 202.338 73.0142 202.415 72.8216 202.415H22.5599C22.5249 202.414 22.4901 202.42 22.4576 202.432C22.425 202.445 22.3953 202.464 22.3703 202.489C22.3452 202.513 22.3253 202.542 22.3117 202.575C22.2981 202.607 22.2911 202.642 22.2911 202.677V204.262C22.2911 204.297 22.2981 204.332 22.3117 204.364C22.3253 204.396 22.3452 204.426 22.3703 204.45C22.3953 204.474 22.425 204.493 22.4576 204.506C22.4901 204.519 22.5249 204.525 22.5599 204.524H75.1604C75.5032 204.524 75.8321 204.388 76.0745 204.145C76.317 203.902 76.4532 203.573 76.4532 203.229V194.283C76.4532 194.213 76.4259 194.145 76.3771 194.095C76.3282 194.045 76.2617 194.016 76.1917 194.014H22.5599C22.4898 194.014 22.4225 194.041 22.3724 194.09C22.3222 194.139 22.293 194.205 22.2911 194.276Z" fill="#FF5050"/>
<path d="M212.169 223.254C213.172 221.193 214.176 219.137 215.184 217.086C212.025 215.729 208.685 214.842 205.269 214.453L205.175 217.638L206.627 218.257L206.105 222.003H209.199L212.169 223.254Z" fill="#263238"/>
<path d="M205.175 217.639L206.388 219.755C206.453 219.261 206.526 218.759 206.591 218.257L205.175 217.639Z" fill="#263238"/>
<path d="M206.067 222.003L211.493 228.157L212.169 223.254L209.162 222.032L206.067 222.003Z" fill="#263238"/>
<path d="M211.492 228.149L214.717 227.371L212.167 223.247L211.492 228.149Z" fill="#263238"/>
<path d="M215.182 217.086L220.158 219.857L216.787 224.629L212.168 223.254C213.17 221.183 214.175 219.127 215.182 217.086Z" fill="#263238"/>
<path d="M211.492 228.149L213.903 230.818L216.213 231.502C215.712 230.12 215.218 228.745 214.717 227.371L211.492 228.149Z" fill="#263238"/>
<path d="M216.215 231.51L217.363 230.055L216.121 226.695L214.719 227.422C215.22 228.753 215.714 230.128 216.215 231.51Z" fill="#263238"/>
<path d="M216.119 226.694L212.168 223.268L214.717 227.392L216.119 226.694Z" fill="#263238"/>
<path d="M216.787 224.628C217.332 225.857 217.87 227.094 218.407 228.323L216.119 226.694L212.168 223.268L216.787 224.628Z" fill="#263238"/>
<path d="M218.406 228.323L223.897 226.214L221.922 221.326L222.205 218.926L220.157 219.857L216.787 224.628C217.331 225.857 217.869 227.094 218.406 228.323Z" fill="#263238"/>
<path d="M210.222 215.384L212.401 213.711L215.734 212.147L219.017 216.249L215.161 217.086C214.485 216.795 213.759 216.511 212.982 216.235C212.018 215.895 211.098 215.612 210.222 215.384Z" fill="#263238"/>
<path d="M219.04 216.25L222.207 218.926L220.129 219.864L215.183 217.086L219.04 216.25Z" fill="#263238"/>
<path d="M217.36 230.084L221.326 232.63C221.021 231.684 220.723 230.731 220.425 229.786L216.118 226.695L217.36 230.084Z" fill="#263238"/>
<path d="M221.327 232.63L223.615 227.873L223.898 226.215L218.407 228.324L220.426 229.779C220.724 230.731 221.022 231.684 221.327 232.63Z" fill="#263238"/>
<path d="M206.067 222.003L204.738 222.607L206.54 224.331L209.532 231.917L211.493 228.157L206.067 222.003Z" fill="#263238"/>
<path d="M209.531 231.917L212.276 232.688L216.213 231.51L213.903 230.826L211.492 228.149L209.531 231.917Z" fill="#263238"/>
<path d="M204.745 222.607C204.327 223.237 203.992 223.919 203.749 224.636C203.472 225.458 203.313 226.315 203.277 227.182L208.449 229.124C207.817 227.524 207.178 225.931 206.546 224.331L204.745 222.607Z" fill="#263238"/>
<path opacity="0.9" d="M212.169 223.254C213.172 221.193 214.176 219.137 215.184 217.086C212.025 215.729 208.685 214.842 205.269 214.453L205.175 217.638L206.627 218.257L206.105 222.003H209.199L212.169 223.254Z" fill="white"/>
<path opacity="0.8" d="M205.175 217.639L206.388 219.755C206.453 219.261 206.526 218.759 206.591 218.257L205.175 217.639Z" fill="white"/>
<path opacity="0.8" d="M206.067 222.003L211.493 228.157L212.169 223.254L209.162 222.032L206.067 222.003Z" fill="white"/>
<path opacity="0.9" d="M211.492 228.149L214.717 227.371L212.167 223.247L211.492 228.149Z" fill="white"/>
<path opacity="0.8" d="M215.182 217.086L220.158 219.857L216.787 224.629L212.168 223.254C213.17 221.183 214.175 219.127 215.182 217.086Z" fill="white"/>
<path opacity="0.7" d="M211.492 228.149L213.903 230.818L216.213 231.502C215.712 230.12 215.218 228.745 214.717 227.371L211.492 228.149Z" fill="white"/>
<path opacity="0.5" d="M216.215 231.51L217.363 230.055L216.121 226.695L214.719 227.422C215.22 228.753 215.714 230.128 216.215 231.51Z" fill="white"/>
<path opacity="0.5" d="M216.119 226.694L212.168 223.268L214.717 227.392L216.119 226.694Z" fill="white"/>
<path opacity="0.9" d="M216.787 224.628C217.332 225.857 217.87 227.094 218.407 228.323L216.119 226.694L212.168 223.268L216.787 224.628Z" fill="white"/>
<path opacity="0.8" d="M218.406 228.323L223.897 226.214L221.922 221.326L222.205 218.926L220.157 219.857L216.787 224.628C217.331 225.857 217.869 227.094 218.406 228.323Z" fill="white"/>
<path d="M210.222 215.384L212.401 213.711L215.734 212.147L219.017 216.249L215.161 217.086C214.485 216.795 213.759 216.511 212.982 216.235C212.018 215.895 211.098 215.612 210.222 215.384Z" fill="white"/>
<path opacity="0.9" d="M219.04 216.25L222.207 218.926L220.129 219.864L215.183 217.086L219.04 216.25Z" fill="white"/>
<path opacity="0.9" d="M217.36 230.084L221.326 232.63C221.021 231.684 220.723 230.731 220.425 229.786L216.118 226.695L217.36 230.084Z" fill="white"/>
<path opacity="0.8" d="M221.327 232.63L223.615 227.873L223.898 226.215L218.407 228.324L220.426 229.779C220.724 230.731 221.022 231.684 221.327 232.63Z" fill="white"/>
<path opacity="0.7" d="M206.067 222.003L204.738 222.607L206.54 224.331L209.532 231.917L211.493 228.157L206.067 222.003Z" fill="white"/>
<path opacity="0.5" d="M209.531 231.917L212.276 232.688L216.213 231.51L213.903 230.826L211.492 228.149L209.531 231.917Z" fill="white"/>
<path opacity="0.9" d="M204.745 222.607C204.327 223.237 203.992 223.919 203.749 224.636C203.472 225.458 203.313 226.315 203.277 227.182L208.449 229.124C207.817 227.524 207.178 225.931 206.546 224.331L204.745 222.607Z" fill="white"/>
<path d="M251.428 221.676L256.817 225.923C257.988 224.268 259.016 222.516 259.889 220.686C260.489 219.411 261.016 218.102 261.466 216.766L258.379 216.039C258.074 216.46 257.776 216.882 257.471 217.297L253.934 216.002C253.701 217.006 253.476 218.017 253.251 219.021L251.428 221.676Z" fill="#263238"/>
<path d="M258.377 216.009L256.053 216.736L257.47 217.253C257.767 216.853 258.072 216.431 258.377 216.009Z" fill="#263238"/>
<path d="M253.931 215.973L246.777 219.988L251.425 221.676L253.248 218.992C253.474 217.966 253.699 216.977 253.931 215.973Z" fill="#263238"/>
<path d="M246.777 219.988L246.864 223.312L251.425 221.676L246.777 219.988Z" fill="#263238"/>
<path d="M256.815 225.923L253.06 230.214L249.116 225.916L251.426 221.675L256.815 225.923Z" fill="#263238"/>
<path d="M246.778 219.988L243.669 221.792C243.284 222.519 242.899 223.203 242.521 223.909L246.879 223.312L246.778 219.988Z" fill="#263238"/>
<path d="M242.515 223.909L243.662 225.363L247.243 224.861C247.112 224.352 246.989 223.843 246.858 223.341L242.515 223.909Z" fill="#263238"/>
<path d="M247.25 224.832L251.427 221.675L246.873 223.312C246.996 223.785 247.12 224.323 247.25 224.832Z" fill="#263238"/>
<path d="M249.117 225.916L245.166 226.73L247.25 224.832L251.426 221.675L249.117 225.916Z" fill="#263238"/>
<path d="M245.166 226.73C245.471 228.665 245.768 230.607 246.073 232.549L251.259 231.64L253.54 232.426L253.061 230.244L249.117 225.945L245.166 226.73Z" fill="#263238"/>
<path d="M259.516 221.428L260.671 223.931L261.499 227.524L256.807 229.88C256.807 228.564 256.807 227.24 256.807 225.924C257.233 225.327 257.662 224.68 258.093 223.981C258.637 223.094 259.11 222.236 259.516 221.428Z" fill="#263238"/>
<path d="M256.823 229.88L253.54 232.419L253.061 230.186L256.816 225.923C256.816 227.24 256.816 228.564 256.823 229.88Z" fill="#263238"/>
<path d="M243.67 225.334L240.351 228.68L243.314 228.389L247.251 224.832L243.67 225.334Z" fill="#263238"/>
<path d="M240.336 228.68L244.498 231.924L246.059 232.542C245.754 230.607 245.457 228.665 245.151 226.723L243.299 228.382L240.336 228.68Z" fill="#263238"/>
<path d="M253.933 215.973C253.824 215.493 253.722 215.013 253.62 214.518L251.558 215.915L243.517 217.253L246.778 219.966L253.933 215.973Z" fill="#263238"/>
<path d="M243.515 217.275L242.193 219.807L242.52 223.909C242.898 223.182 243.283 222.498 243.668 221.792L246.776 219.988L243.515 217.275Z" fill="#263238"/>
<path d="M253.621 214.54C252.474 213.381 251.036 212.554 249.459 212.147L246.474 216.802L251.558 215.937L253.621 214.54Z" fill="#263238"/>
<path opacity="0.9" d="M251.428 221.676L256.817 225.923C257.988 224.268 259.016 222.516 259.889 220.686C260.489 219.411 261.016 218.102 261.466 216.766L258.379 216.039C258.074 216.46 257.776 216.882 257.471 217.297L253.934 216.002C253.701 217.006 253.476 218.017 253.251 219.021L251.428 221.676Z" fill="white"/>
<path opacity="0.9" d="M258.377 216.009L256.053 216.736L257.47 217.253C257.767 216.853 258.072 216.431 258.377 216.009Z" fill="white"/>
<path opacity="0.8" d="M253.931 215.973L246.777 219.988L251.425 221.676L253.248 218.992C253.474 217.966 253.699 216.977 253.931 215.973Z" fill="white"/>
<path opacity="0.8" d="M246.777 219.988L246.864 223.312L251.425 221.676L246.777 219.988Z" fill="white"/>
<path opacity="0.8" d="M256.815 225.923L253.06 230.214L249.116 225.916L251.426 221.675L256.815 225.923Z" fill="white"/>
<path opacity="0.7" d="M246.778 219.988L243.669 221.792C243.284 222.519 242.899 223.203 242.521 223.909L246.879 223.312L246.778 219.988Z" fill="white"/>
<path opacity="0.5" d="M242.515 223.909L243.662 225.363L247.243 224.861C247.112 224.352 246.989 223.843 246.858 223.341L242.515 223.909Z" fill="white"/>
<path opacity="0.5" d="M247.25 224.832L251.427 221.675L246.873 223.312C246.996 223.785 247.12 224.323 247.25 224.832Z" fill="white"/>
<path opacity="0.9" d="M249.117 225.916L245.166 226.73L247.25 224.832L251.426 221.675L249.117 225.916Z" fill="white"/>
<path opacity="0.7" d="M245.166 226.73C245.471 228.665 245.768 230.607 246.073 232.549L251.259 231.64L253.54 232.426L253.061 230.244L249.117 225.945L245.166 226.73Z" fill="white"/>
<path opacity="0.7" d="M259.516 221.428L260.671 223.931L261.499 227.524L256.807 229.88C256.807 228.564 256.807 227.24 256.807 225.924C257.233 225.327 257.662 224.68 258.093 223.981C258.637 223.094 259.11 222.236 259.516 221.428Z" fill="white"/>
<path opacity="0.5" d="M256.823 229.88L253.54 232.419L253.061 230.186C254.317 228.767 255.566 227.342 256.816 225.923C256.816 227.24 256.816 228.564 256.823 229.88Z" fill="white"/>
<path opacity="0.9" d="M243.67 225.334L240.351 228.68L243.314 228.389L247.251 224.832L243.67 225.334Z" fill="white"/>
<path opacity="0.7" d="M240.336 228.68L244.498 231.924L246.059 232.542C245.754 230.607 245.457 228.665 245.151 226.723L243.299 228.382L240.336 228.68Z" fill="white"/>
<path opacity="0.9" d="M253.933 215.973C253.824 215.493 253.722 215.013 253.62 214.518L251.558 215.915L243.517 217.253L246.778 219.966L253.933 215.973Z" fill="white"/>
<path opacity="0.9" d="M243.515 217.275L242.193 219.807L242.52 223.909C242.898 223.182 243.283 222.498 243.668 221.792L246.776 219.988L243.515 217.275Z" fill="white"/>
<path d="M253.621 214.54C252.474 213.381 251.036 212.554 249.459 212.147L246.474 216.802L251.558 215.937L253.621 214.54Z" fill="white"/>
<path d="M129.205 232.448H161.475C161.537 232.447 161.597 232.433 161.652 232.406C161.707 232.379 161.755 232.34 161.794 232.292C161.832 232.244 161.859 232.188 161.873 232.128C161.887 232.068 161.888 232.006 161.875 231.946C161.545 230.433 161.214 228.925 160.88 227.422C160.86 227.33 160.81 227.248 160.737 227.188C160.664 227.129 160.574 227.096 160.48 227.094H125.98C125.903 227.095 125.829 227.117 125.763 227.157C125.698 227.198 125.646 227.255 125.61 227.323C125.575 227.391 125.559 227.467 125.564 227.543C125.569 227.62 125.595 227.693 125.638 227.756L128.87 232.273C128.908 232.327 128.958 232.37 129.017 232.401C129.075 232.431 129.139 232.447 129.205 232.448Z" fill="#22408B"/>
<path opacity="0.2" d="M129.204 232.448H161.482C161.542 232.448 161.603 232.435 161.658 232.409C161.712 232.383 161.761 232.344 161.799 232.296C161.836 232.249 161.863 232.193 161.876 232.134C161.889 232.074 161.888 232.012 161.874 231.953C161.54 230.433 161.198 228.92 160.857 227.4C160.835 227.31 160.783 227.23 160.711 227.172C160.639 227.114 160.55 227.082 160.457 227.08H125.935C125.86 227.08 125.787 227.101 125.723 227.141C125.659 227.18 125.608 227.236 125.574 227.303C125.54 227.37 125.526 227.445 125.532 227.52C125.538 227.595 125.564 227.667 125.608 227.727L128.848 232.266C128.886 232.324 128.94 232.372 129.002 232.404C129.064 232.435 129.134 232.451 129.204 232.448Z" fill="black"/>
<path d="M114.851 177.169H54.036C53.7143 177.17 53.3968 177.242 53.1063 177.38L50.4697 178.646C55.4668 196.587 60.4664 214.512 65.4684 232.419L126.363 232.579L129.777 232.448C125.056 214.264 120.553 196.08 115.839 177.896C115.776 177.684 115.645 177.498 115.467 177.367C115.289 177.236 115.072 177.166 114.851 177.169Z" fill="#22408B"/>
<path opacity="0.2" d="M126.363 232.579L65.4684 232.419C60.4664 214.477 55.4668 196.553 50.4697 178.645H112.563L126.363 232.579Z" fill="black"/>
<path opacity="0.2" d="M52.9394 177.467L50.4844 178.645H112.578L115.047 177.46C115.08 177.445 115.105 177.419 115.121 177.387C115.136 177.355 115.14 177.319 115.131 177.284C115.122 177.25 115.102 177.219 115.074 177.198C115.045 177.177 115.01 177.167 114.975 177.169H54.254C53.799 177.168 53.3496 177.27 52.9394 177.467Z" fill="white"/>
<path d="M91.4338 203.419C91.5491 204.651 91.2971 205.889 90.7094 206.978C90.1218 208.066 89.225 208.956 88.1326 209.534C87.0401 210.112 85.8009 210.352 84.5719 210.225C83.3429 210.098 82.1792 209.608 81.228 208.819C80.2768 208.029 79.5808 206.974 79.2281 205.788C78.8754 204.603 78.8819 203.339 79.2466 202.156C79.6114 200.974 80.3181 199.927 81.2773 199.147C82.2365 198.367 83.4051 197.889 84.6354 197.775C85.452 197.698 86.2757 197.782 87.0596 198.024C87.8434 198.266 88.5718 198.661 89.2033 199.185C89.8347 199.709 90.3567 200.353 90.7395 201.08C91.1222 201.806 91.3581 202.601 91.4338 203.419Z" fill="#22408B"/>
<path opacity="0.4" d="M115.831 177.903L129.777 232.455L126.363 232.586L112.563 178.652L114.96 177.503C115.042 177.464 115.133 177.443 115.224 177.442C115.315 177.441 115.406 177.461 115.489 177.499C115.572 177.537 115.646 177.593 115.705 177.663C115.764 177.733 115.807 177.815 115.831 177.903Z" fill="black"/>
</svg>
